<svg width="40" height="40" viewBox="0 0 34 34" xmlns="http://www.w3.org/2000/svg">
    <path d="M17.0002 0.375977C7.80016 0.375977 0.333496 7.84264 0.333496 17.0426C0.333496 26.2426 7.80016 33.7093 17.0002 33.7093C26.2002 33.7093 33.6668 26.2426 33.6668 17.0426C33.6668 7.84264 26.2002 0.375977 17.0002 0.375977ZM24.7335 11.7093C24.4835 14.3426 23.4002 20.7426 22.8502 23.6926C22.6168 24.9426 22.1502 25.3593 21.7168 25.4093C20.7502 25.4926 20.0168 24.776 19.0835 24.1593C17.6168 23.1926 16.7835 22.5926 15.3668 21.6593C13.7168 20.576 14.7835 19.976 15.7335 19.0093C15.9835 18.7593 20.2502 14.876 20.3335 14.526C20.3451 14.473 20.3435 14.4179 20.329 14.3656C20.3145 14.3134 20.2874 14.2654 20.2502 14.226C20.1502 14.1426 20.0168 14.176 19.9002 14.1926C19.7502 14.226 17.4168 15.776 12.8668 18.8426C12.2002 19.2926 11.6002 19.526 11.0668 19.5093C10.4668 19.4926 9.3335 19.176 8.4835 18.8926C7.4335 18.5593 6.61683 18.376 6.6835 17.7926C6.71683 17.4926 7.1335 17.1926 7.91683 16.876C12.7835 14.7593 16.0168 13.3593 17.6335 12.6926C22.2668 10.7593 23.2168 10.426 23.8502 10.426C23.9835 10.426 24.3002 10.4593 24.5002 10.626C24.6668 10.7593 24.7168 10.9426 24.7335 11.076C24.7168 11.176 24.7502 11.476 24.7335 11.7093Z"
    />
</svg>
