<svg width="40" height="40" viewBox="0 0 40 40" xmlns="http://www.w3.org/2000/svg">
    <path fill-rule="evenodd" clip-rule="evenodd"
          d="M39.0833 10.5907C39.36 9.68074 39.0833 9.01074 37.7583 9.01074H33.3833C32.27 9.01074 31.7567 9.58908 31.4783 10.2274C31.4783 10.2274 29.2533 15.5541 26.1017 19.0141C25.0817 20.0174 24.6183 20.3357 24.0617 20.3357C23.7833 20.3357 23.365 20.0174 23.365 19.1057V10.5907C23.365 9.49741 23.0583 9.01074 22.1317 9.01074H15.2517C14.5567 9.01074 14.1383 9.51741 14.1383 9.99908C14.1383 11.0341 15.715 11.2741 15.8767 14.1874V20.5174C15.8767 21.9057 15.6217 22.1574 15.065 22.1574C13.5817 22.1574 9.97333 16.8057 7.83167 10.6824C7.41667 9.49074 6.99667 9.01074 5.87833 9.01074H1.5C0.25 9.01074 0 9.58908 0 10.2274C0 11.3641 1.48333 17.0107 6.90833 24.4791C10.525 29.5791 15.6167 32.3441 20.255 32.3441C23.0367 32.3441 23.38 31.7307 23.38 30.6724V26.8174C23.38 25.5891 23.6433 25.3441 24.525 25.3441C25.175 25.3441 26.2867 25.6641 28.8833 28.1224C31.85 31.0374 32.3383 32.3441 34.0083 32.3441H38.3833C39.6333 32.3441 40.26 31.7307 39.9 30.5174C39.5033 29.3107 38.0867 27.5591 36.2083 25.4807C35.1883 24.2974 33.6583 23.0224 33.1933 22.3841C32.545 21.5657 32.73 21.2007 33.1933 20.4724C33.1933 20.4724 38.5267 13.0957 39.0817 10.5907"
    />
</svg>
