<svg width="40" height="41" viewBox="0 0 40 40" xmlns="http://www.w3.org/2000/svg">
    <path d="M20.0017 4.01074C29.2067 4.01074 36.6683 11.4724 36.6683 20.6774C36.6683 29.8824 29.2067 37.3441 20.0017 37.3441C17.0562 37.3491 14.1626 36.5697 11.6183 35.0857L3.34165 37.3441L5.59499 29.0641C4.10992 26.519 3.32982 23.6241 3.33499 20.6774C3.33499 11.4724 10.7967 4.01074 20.0017 4.01074ZM14.3217 12.8441L13.9883 12.8574C13.7728 12.8723 13.5622 12.9289 13.3683 13.0241C13.1876 13.1266 13.0226 13.2546 12.8783 13.4041C12.6783 13.5924 12.565 13.7557 12.4433 13.9141C11.8269 14.7156 11.4949 15.6996 11.5 16.7107C11.5033 17.5274 11.7167 18.3224 12.05 19.0657C12.7317 20.5691 13.8533 22.1607 15.3333 23.6357C15.69 23.9907 16.04 24.3474 16.4167 24.6791C18.2557 26.2981 20.4471 27.4657 22.8167 28.0891L23.7633 28.2341C24.0717 28.2507 24.38 28.2274 24.69 28.2124C25.1753 28.1868 25.6491 28.0554 26.0783 27.8274C26.2964 27.7146 26.5094 27.5923 26.7167 27.4607C26.7167 27.4607 26.7872 27.413 26.925 27.3107C27.15 27.1441 27.2883 27.0257 27.475 26.8307C27.615 26.6863 27.7317 26.5185 27.825 26.3274C27.955 26.0557 28.085 25.5374 28.1383 25.1057C28.1783 24.7757 28.1667 24.5957 28.1617 24.4841C28.155 24.3057 28.0067 24.1207 27.845 24.0424L26.875 23.6074C26.875 23.6074 25.425 22.9757 24.5383 22.5724C24.4455 22.532 24.3461 22.5088 24.245 22.5041C24.1309 22.4921 24.0157 22.5049 23.907 22.5414C23.7983 22.5779 23.6987 22.6374 23.615 22.7157C23.6067 22.7124 23.495 22.8074 22.29 24.2674C22.2208 24.3603 22.1256 24.4306 22.0163 24.4692C21.9071 24.5078 21.7888 24.5129 21.6767 24.4841C21.568 24.4551 21.4616 24.4184 21.3583 24.3741C21.1517 24.2874 21.08 24.2541 20.9383 24.1941C19.9814 23.7773 19.0957 23.2132 18.3133 22.5224C18.1033 22.3391 17.9083 22.1391 17.7083 21.9457C17.0527 21.3178 16.4812 20.6074 16.0083 19.8324L15.91 19.6741C15.8404 19.5671 15.7834 19.4524 15.74 19.3324C15.6767 19.0874 15.8417 18.8907 15.8417 18.8907C15.8417 18.8907 16.2467 18.4474 16.435 18.2074C16.6183 17.9741 16.7733 17.7474 16.8733 17.5857C17.07 17.2691 17.1317 16.9441 17.0283 16.6924C16.5617 15.5524 16.0794 14.4185 15.5817 13.2907C15.4833 13.0674 15.1917 12.9074 14.9267 12.8757C14.8367 12.8646 14.7467 12.8557 14.6567 12.8491C14.4329 12.8362 14.2085 12.8385 13.985 12.8557L14.3217 12.8441Z"
    />
</svg>