<svg width="230" height="87" viewBox="0 0 230 87" fill="none" xmlns="http://www.w3.org/2000/svg">
<g clip-path="url(#clip0_29_162)">
<path d="M113.106 24.7138V21.9877H112.188C110.735 21.9712 109.463 21.6987 108.372 21.1699C107.298 20.6413 106.463 19.873 105.869 18.8651C105.29 17.8574 105.002 16.6265 105.002 15.1726C105.002 13.6856 105.315 12.4383 105.943 11.4305C106.571 10.4227 107.431 9.67095 108.521 9.17531C109.611 8.66313 110.859 8.40706 112.262 8.40706H113.106V6.05273H116.65V8.40706H117.393C118.797 8.40706 120.053 8.66313 121.16 9.17531C122.267 9.68747 123.142 10.4392 123.786 11.4305C124.448 12.4217 124.777 13.6527 124.777 15.1231C124.777 16.5935 124.489 17.8408 123.91 18.8651C123.333 19.873 122.497 20.6413 121.407 21.1699C120.317 21.6987 119.02 21.9712 117.517 21.9877H116.65V24.7138H113.106ZM112.411 18.9396H113.106V11.4801H112.411C111.569 11.4801 110.851 11.637 110.255 11.9509C109.678 12.2649 109.231 12.6944 108.917 13.2396C108.62 13.7849 108.471 14.4126 108.471 15.1231C108.471 15.8665 108.612 16.5274 108.892 17.1057C109.173 17.6674 109.603 18.1135 110.181 18.4439C110.776 18.7743 111.519 18.9396 112.411 18.9396ZM116.65 18.9396H117.368C118.26 18.9396 118.995 18.7743 119.574 18.4439C120.151 18.1135 120.581 17.6674 120.862 17.1057C121.144 16.5274 121.284 15.8665 121.284 15.1231C121.284 14.4126 121.127 13.7849 120.813 13.2396C120.515 12.6944 120.078 12.2649 119.499 11.9509C118.921 11.637 118.202 11.4801 117.343 11.4801H116.65V18.9396ZM135.262 24.5651C133.462 24.5651 131.908 24.1851 130.603 23.4252C129.315 22.6651 128.323 21.616 127.63 20.2778C126.953 18.923 126.614 17.3699 126.614 15.6187C126.614 13.8344 126.961 12.2649 127.654 10.9101C128.364 9.5553 129.372 8.50618 130.677 7.76272C131.983 7.00273 133.536 6.62273 135.337 6.62273C137.121 6.62273 138.657 6.99447 139.946 7.73793C141.235 8.4814 142.226 9.52226 142.921 10.8605C143.631 12.1987 143.986 13.7601 143.986 15.5443C143.986 17.2956 143.631 18.8569 142.921 20.2282C142.226 21.583 141.227 22.6486 139.921 23.4252C138.632 24.1851 137.08 24.5651 135.262 24.5651ZM135.312 21.2443C136.501 21.2443 137.468 20.9717 138.212 20.4265C138.955 19.8812 139.492 19.1791 139.822 18.32C140.169 17.4609 140.343 16.5604 140.343 15.6187C140.343 14.9248 140.244 14.2392 140.045 13.5617C139.863 12.8844 139.575 12.2731 139.178 11.7278C138.781 11.1827 138.261 10.7531 137.617 10.4392C136.973 10.1088 136.196 9.94356 135.287 9.94356C134.114 9.94356 133.156 10.2162 132.413 10.7614C131.669 11.29 131.116 11.9839 130.752 12.8431C130.406 13.7022 130.232 14.6191 130.232 15.5939C130.232 16.5687 130.406 17.4856 130.752 18.3448C131.116 19.2038 131.669 19.906 132.413 20.4513C133.172 20.9799 134.139 21.2443 135.312 21.2443ZM146.747 24.3668V6.82099H150.291V14.0822H157.875V6.82099H161.444V24.3668H157.875V17.3534H150.291V24.3668H146.747ZM163.629 28.8029V21.0956C164.306 21.0956 164.81 20.9221 165.14 20.5751C165.47 20.2282 165.71 19.7986 165.859 19.2865C166.008 18.7578 166.124 18.2043 166.205 17.6261C166.304 17.0478 166.379 16.4613 166.429 15.8665C166.478 15.2718 166.511 14.6935 166.528 14.1317C166.594 12.8597 166.643 11.6205 166.677 10.4144C166.71 9.20835 166.726 8.01054 166.726 6.82099H179.117V21.0956H181.223V28.8029H177.679V24.3668H167.173V28.8029H163.629ZM169.006 21.0956H175.573V10.117H169.997L169.873 15.6434C169.873 15.9739 169.857 16.3704 169.824 16.833C169.807 17.2791 169.766 17.75 169.7 18.2457C169.633 18.7412 169.544 19.2369 169.428 19.7326C169.329 20.2282 169.188 20.6826 169.006 21.0956ZM105.968 52.3425V34.7967H109.512V42.0826H112.015L116.575 34.7967H120.639L114.989 43.3218L120.614 52.3425H116.476L112.138 45.3539H109.512V52.3425H105.968ZM122.643 52.3425V34.7967H129.482C130.821 34.7967 131.986 35.0032 132.977 35.4162C133.984 35.8127 134.762 36.457 135.306 37.3493C135.852 38.2249 136.125 39.3979 136.125 40.8683C136.125 42.2396 135.819 43.3878 135.207 44.3131C134.613 45.2383 133.795 45.9322 132.755 46.3948C131.713 46.8408 130.531 47.0639 129.211 47.0639H126.187V52.3425H122.643ZM126.187 43.8918H129.161C130.218 43.8918 131.052 43.644 131.663 43.1483C132.292 42.6362 132.606 41.8678 132.606 40.8435C132.606 39.9183 132.341 39.2327 131.812 38.7866C131.3 38.324 130.475 38.0927 129.334 38.0927H126.187V43.8918ZM135.475 52.3425L142.315 34.7967H146.28L153.046 52.3425H149.229L148.139 49.3438H140.382L139.292 52.3425H135.475ZM141.522 46.1469H147.024L144.297 38.5636L141.522 46.1469ZM162.049 52.5408C160.248 52.5408 158.712 52.1773 157.439 51.4504C156.184 50.7068 155.226 49.666 154.565 48.3278C153.92 46.9896 153.598 45.4282 153.598 43.644C153.598 41.8266 153.928 40.2405 154.59 38.8857C155.267 37.531 156.233 36.4818 157.489 35.7384C158.745 34.9784 160.257 34.5985 162.024 34.5985C163.362 34.5985 164.56 34.8298 165.618 35.2923C166.675 35.7384 167.525 36.4075 168.17 37.2997C168.831 38.1753 169.244 39.2575 169.41 40.5462H165.99C165.775 39.7366 165.336 39.1005 164.676 38.6379C164.031 38.1588 163.172 37.9193 162.098 37.9193C160.909 37.9193 159.959 38.1918 159.248 38.7371C158.554 39.2657 158.051 39.9596 157.737 40.8187C157.423 41.6613 157.266 42.5535 157.266 43.4952C157.266 44.47 157.431 45.3953 157.762 46.2709C158.091 47.1465 158.612 47.8569 159.322 48.4022C160.05 48.9474 161 49.2199 162.173 49.2199C162.866 49.2199 163.486 49.1208 164.031 48.9226C164.577 48.7078 165.022 48.4021 165.37 48.0056C165.733 47.6091 165.981 47.1382 166.114 46.593H169.657C169.509 47.8652 169.079 48.9474 168.369 49.8395C167.658 50.7317 166.758 51.409 165.667 51.8716C164.577 52.3177 163.371 52.5408 162.049 52.5408ZM172.401 52.3425V34.7967H175.945V42.0579H183.528V34.7967H187.097V52.3425H183.528V45.3291H175.945V52.3425H172.401ZM190.818 52.3425V34.7967H194.362V41.3144H196.965C197.791 41.3144 198.592 41.397 199.369 41.5622C200.161 41.711 200.871 41.9835 201.5 42.3801C202.144 42.7601 202.648 43.297 203.011 43.9909C203.391 44.6683 203.581 45.5356 203.581 46.593C203.581 47.7 203.383 48.6252 202.986 49.3686C202.59 50.1122 202.053 50.6987 201.376 51.1282C200.698 51.5577 199.93 51.8716 199.071 52.07C198.212 52.2517 197.319 52.3425 196.394 52.3425H190.818ZM194.362 49.0713H196.419C196.915 49.0713 197.385 49.0382 197.832 48.9722C198.278 48.906 198.666 48.7904 198.997 48.6252C199.344 48.4434 199.607 48.2039 199.789 47.9065C199.988 47.5926 200.087 47.1878 200.087 46.6921C200.087 46.18 199.988 45.7835 199.789 45.5026C199.591 45.2052 199.327 44.9822 198.997 44.8335C198.666 44.6848 198.295 44.5857 197.881 44.5361C197.468 44.4866 197.039 44.4618 196.593 44.4618H194.362V49.0713ZM205.837 52.3425V34.7967H209.405V52.3425H205.837ZM213.133 52.3425V34.7967H216.676V46.3452L225.077 34.7967H228.101V52.3425H224.557V40.9426L216.156 52.3425H213.133ZM220.691 33.8053C219.733 33.8053 218.89 33.6484 218.163 33.3346C217.453 33.0206 216.899 32.558 216.503 31.9467C216.106 31.3354 215.883 30.5589 215.833 29.6172H218.783C218.799 30.1624 218.989 30.5754 219.352 30.8563C219.716 31.1372 220.171 31.2775 220.715 31.2775C221.278 31.2775 221.723 31.1372 222.054 30.8563C222.385 30.5754 222.566 30.1624 222.599 29.6172H225.523C225.507 30.5589 225.292 31.3354 224.879 31.9467C224.466 32.558 223.904 33.0206 223.194 33.3346C222.483 33.6484 221.649 33.8053 220.691 33.8053ZM104.431 84.7542V77.0469C105.109 77.0469 105.613 76.8735 105.943 76.5265C106.274 76.1796 106.513 75.75 106.662 75.2378C106.811 74.7092 106.926 74.1557 107.009 73.5775C107.108 72.9992 107.183 72.4127 107.232 71.8179C107.282 71.2231 107.315 70.6448 107.331 70.0831C107.398 68.811 107.447 67.5719 107.48 66.3657C107.512 65.1597 107.529 63.9619 107.529 62.7724H119.921V77.0469H122.027V84.7542H118.483V80.3182H107.975V84.7542H104.431ZM109.809 77.0469H116.377V66.0684H110.801L110.677 71.5948C110.677 71.9253 110.66 72.3218 110.627 72.7843C110.611 73.2305 110.57 73.7013 110.503 74.197C110.437 74.6926 110.346 75.1883 110.231 75.6839C110.131 76.1796 109.991 76.6339 109.809 77.0469ZM124.216 80.3182V62.7724H131.056C132.394 62.7724 133.559 62.9789 134.55 63.3919C135.558 63.7884 136.334 64.4327 136.88 65.3249C137.424 66.2006 137.697 67.3736 137.697 68.844C137.697 70.2153 137.391 71.3635 136.781 72.2888C136.186 73.214 135.368 73.9079 134.327 74.3705C133.286 74.8165 132.105 75.0396 130.783 75.0396H127.76V80.3182H124.216ZM127.76 71.8674H130.733C131.791 71.8674 132.626 71.6197 133.237 71.124C133.865 70.6118 134.178 69.8435 134.178 68.8192C134.178 67.894 133.915 67.2084 133.385 66.7623C132.873 66.2997 132.047 66.0684 130.907 66.0684H127.76V71.8674ZM137.048 80.3182L143.888 62.7724H147.853L154.619 80.3182H150.803L149.712 77.3195H141.956L140.864 80.3182H137.048ZM143.096 74.1226H148.597L145.871 66.5393L143.096 74.1226ZM156.501 80.3182V62.7724H160.045V70.0583H162.548L167.108 62.7724H171.172L165.521 71.2974L171.147 80.3182H167.009L162.672 73.3296H160.045V80.3182H156.501ZM180.107 80.5164C178.307 80.5164 176.754 80.1365 175.448 79.3765C174.161 78.6165 173.168 77.5674 172.475 76.2291C171.798 74.8743 171.459 73.3213 171.459 71.57C171.459 69.7858 171.806 68.2162 172.5 66.8614C173.21 65.5067 174.217 64.4575 175.523 63.714C176.828 62.9541 178.381 62.5741 180.182 62.5741C181.967 62.5741 183.503 62.9458 184.791 63.6893C186.08 64.4327 187.071 65.4736 187.766 66.8118C188.476 68.1501 188.831 69.7114 188.831 71.4957C188.831 73.2469 188.476 74.8083 187.766 76.1796C187.071 77.5343 186.072 78.6 184.767 79.3765C183.478 80.1365 181.925 80.5164 180.107 80.5164ZM180.157 77.1956C181.347 77.1956 182.313 76.923 183.057 76.3778C183.8 75.8326 184.338 75.1304 184.667 74.2714C185.015 73.4122 185.188 72.5118 185.188 71.57C185.188 70.8761 185.089 70.1905 184.891 69.5131C184.709 68.8358 184.42 68.2244 184.023 67.6792C183.627 67.1341 183.107 66.7044 182.462 66.3905C181.818 66.0601 181.042 65.8949 180.132 65.8949C178.959 65.8949 178.001 66.1675 177.258 66.7127C176.514 67.2414 175.961 67.9353 175.597 68.7944C175.251 69.6536 175.077 70.5705 175.077 71.5452C175.077 72.5201 175.251 73.437 175.597 74.2961C175.961 75.1552 176.514 75.8574 177.258 76.4026C178.018 76.9312 178.984 77.1956 180.157 77.1956ZM191.592 80.3182V62.7724H195.136V70.0335H202.72V62.7724H206.289V80.3182H202.72V73.3048H195.136V80.3182H191.592Z" fill="#EF4751"/>
<path d="M31.3628 0.954249C30.99 1.10834 31.2684 1.5557 32.0786 2.10248C32.5508 2.4206 33.7835 2.99223 34.375 3.17117C35.0759 3.37497 35.6376 3.52409 35.8712 3.55888C36.1644 3.60363 36.5671 3.78257 36.6267 3.89192C36.6864 4.00625 36.6367 4.10566 36.413 4.31443C36.0104 4.6922 35.3542 4.93079 33.8233 5.25389C33.1771 5.38809 33.0031 5.46265 32.849 5.65651C32.6999 5.85036 32.7198 5.98954 32.9186 6.16849C33.0181 6.25299 33.1125 6.32258 33.1324 6.32258C33.1522 6.32258 33.3561 6.34743 33.5897 6.37725C34.3601 6.4717 35.1902 6.33252 37.3425 5.75592C37.9141 5.60183 38.6846 5.3533 39.629 5.02524L40.3697 4.76676L40.8965 4.79659C41.7912 4.85126 42.2684 5.04015 42.1342 5.28868C42.0597 5.42786 40.981 5.91995 40.3498 6.0989C40.2255 6.1337 40.0714 6.1834 40.0018 6.21323C39.8776 6.26293 39.1269 6.44684 38.4758 6.591C38.277 6.63573 37.949 6.69538 37.7452 6.72024C37.5413 6.74508 37.2332 6.78982 37.0591 6.81965C36.8852 6.84947 36.4677 6.8942 36.1247 6.91906C35.7818 6.94391 35.2151 6.99362 34.8572 7.02344C34.0221 7.10297 30.6918 7.10297 29.7871 7.02344C29.4043 6.99362 28.5146 6.94391 27.8038 6.91906C27.0979 6.8942 26.3275 6.8445 26.0889 6.81467C25.8553 6.78485 25.3283 6.74508 24.9158 6.72024C23.6632 6.64567 22.3957 6.48661 21.3817 6.26293C21.2425 6.23311 20.989 6.21819 20.82 6.23311C20.2434 6.27287 20.1638 6.56614 20.6311 6.91906C21.3071 7.43104 22.4056 7.80384 24.3691 8.18161C24.5878 8.22138 24.8661 8.27109 24.9903 8.28599C25.1146 8.30091 25.4626 8.34564 25.7609 8.38541C26.064 8.42517 26.7351 8.47985 27.2521 8.50968C27.7739 8.53453 28.2462 8.56933 28.3108 8.58921C28.445 8.62897 28.4599 8.80792 28.3306 8.92224C28.2014 9.04154 26.8842 9.66288 26.3176 9.87164C25.726 10.0953 25.4825 10.2444 25.1644 10.5874C24.7915 10.995 24.717 11.4921 25.0053 11.6511C25.065 11.6809 25.2837 11.7058 25.4874 11.7058L25.8603 11.7008L26.9041 11.179C28.1667 10.5427 28.8626 10.2743 29.9362 10.0108C30.155 9.95614 30.493 9.87164 30.6818 9.8269C30.8756 9.7772 31.1889 9.72252 31.3777 9.69767C31.5715 9.67778 31.8499 9.62311 31.999 9.58335C32.1481 9.5386 32.3768 9.50381 32.5011 9.50381C32.6253 9.50381 32.9733 9.45907 33.2715 9.40937C33.5698 9.35966 33.9923 9.29007 34.211 9.25528C34.4297 9.22546 34.7329 9.17575 34.882 9.15089C35.0311 9.12604 35.4984 9.09124 35.9258 9.07136C36.7908 9.03657 36.9101 9.06639 37.1338 9.36464C37.3276 9.62808 37.3873 9.8617 37.3027 10.0605C37.1586 10.4085 36.2638 10.8906 35.7619 10.8956C35.4486 10.8956 34.9317 10.8161 34.2856 10.667C32.6403 10.2792 31.507 10.319 30.7414 10.7912C30.5575 10.9006 30.3935 10.995 30.3737 10.995C30.3587 10.995 30.1598 11.1143 29.9362 11.2634C29.3248 11.676 28.3207 12.7944 27.4956 13.9873C27.0581 14.6187 27.083 14.7677 27.5751 14.5043C27.9976 14.2807 28.9968 13.9078 29.5882 13.7537C29.8368 13.6891 30.1598 13.6046 30.309 13.5649C31.2684 13.3064 31.4423 13.2815 32.1035 13.2865C32.7695 13.2914 32.9235 13.3163 33.2268 13.5002C33.5648 13.709 33.714 14.2906 33.4704 14.4496C33.2814 14.5739 32.6154 14.8175 32.3321 14.8672C32.1879 14.892 31.8946 14.9467 31.6759 14.9914C31.4572 15.0312 30.9453 15.1157 30.5327 15.1704C28.9968 15.3841 28.4897 15.5283 27.7342 15.9458C27.0979 16.3037 26.243 17.1189 25.741 17.8546C25.0699 18.8338 24.2249 20.6331 23.534 22.5519C23.2258 23.4018 22.853 24.6047 22.8182 24.8384C22.7735 25.1764 22.8729 25.1764 23.3898 24.8284C23.6284 24.6643 24.0012 24.4357 24.2199 24.3164C24.4386 24.1971 24.6921 24.063 24.7816 24.0082C24.8662 23.9585 25.0202 23.874 25.1196 23.8194C25.5868 23.5509 26.4617 23.1086 26.9587 22.8899C27.7441 22.5369 29.1409 22.1095 29.7871 22.0249C29.9511 22 30.309 21.9504 30.5824 21.9106C30.8756 21.8659 31.4175 21.8311 31.8996 21.8311C33.5101 21.8311 34.206 21.6571 35.394 20.9711C35.7768 20.7474 36.1445 20.4741 36.5223 20.1411C37.432 19.3358 37.949 19.0028 38.3019 18.9978C38.958 18.9929 39.3557 19.4104 39.3557 20.1112C39.3557 20.5586 39.1717 20.827 38.6449 21.1451C38.2123 21.4036 37.9241 21.4831 37.417 21.4831C36.9597 21.4831 36.1347 21.6472 35.7867 21.8062C35.0361 22.1492 34.4049 22.6513 33.7586 23.4117C32.4762 24.9228 31.7555 25.569 30.8011 26.0561C30.1797 26.3742 29.8169 26.4985 29.1707 26.6278C28.8327 26.6974 28.5395 26.762 28.5246 26.7769C28.4549 26.8465 28.6339 26.9707 29.0912 27.1696C30.5028 27.7859 31.2236 28.0096 33.0181 28.3775C33.868 28.5515 33.9724 28.5613 35.0311 28.5812C36.4279 28.6011 37.1089 28.5167 38.1876 28.1836C39.2215 27.8654 40.0267 27.4032 41.2544 26.419C42.0001 25.8175 43.2278 24.7886 43.7249 24.3512C44.1076 24.0082 45.1315 23.2577 45.5789 22.9843C46.1804 22.6164 47.2391 22.0896 47.5821 21.9852C47.771 21.9255 48.0742 21.8759 48.2482 21.8709C48.5365 21.8659 48.5812 21.8808 48.6856 22C48.9441 22.3033 48.7502 22.7407 48.0593 23.4167C47.1844 24.2767 46.7221 24.4954 45.1962 24.7986C45.1166 24.8135 45.0073 24.8483 44.9526 24.8731C44.8682 24.9179 44.8682 24.9278 44.9377 24.9974C45.0023 25.062 45.226 25.0869 46.076 25.1216C47.9897 25.2062 49.2821 25.1266 50.306 24.8682C51.5934 24.5351 52.0806 24.2618 53.194 23.2279C54.3571 22.1492 55.0879 21.677 56.4299 21.1252C57.3793 20.7375 57.9659 20.6083 59.0644 20.5586C59.6459 20.5287 59.5764 20.5188 60.8041 20.8667C61.4503 21.0457 62.0866 21.1849 62.5439 21.2346C63.1503 21.3042 64.6862 21.3837 65.4715 21.3837C66.6297 21.3887 66.7739 21.4186 67.5941 21.8211C68.8914 22.4525 68.9709 22.4723 70.0744 22.4872C70.82 22.4971 70.9443 22.4475 71.1879 22.0647C71.7545 21.175 72.0577 20.1957 72.0627 19.2413C72.0627 18.6896 72.0031 18.4013 71.8838 18.4013C71.849 18.4013 71.8042 18.4609 71.7844 18.5356C71.7695 18.6151 71.7396 18.7194 71.7147 18.7742C71.6899 18.8288 71.6452 18.963 71.6104 19.0724C71.4265 19.6937 71.2475 19.8229 70.6362 19.7732C70.0496 19.7285 69.7264 19.5992 68.7622 19.0028C68.0116 18.5405 67.7631 18.441 67.261 18.4013C67.0075 18.3864 66.7639 18.3416 66.7242 18.3019C66.6596 18.2522 66.6446 18.103 66.6397 17.4867C66.6397 16.6516 66.6 16.3385 66.5054 16.3385C66.4657 16.3385 66.3464 16.5821 66.2222 16.9052C65.924 17.6855 65.6555 17.954 65.1733 17.954C64.9546 17.954 64.8652 17.9092 64.0201 17.3475C63.4833 16.9946 62.9763 16.6964 62.7874 16.6317C62.3451 16.4678 61.5895 16.3136 61.0029 16.2589C60.7296 16.2341 60.3319 16.1943 60.1231 16.1645C59.9094 16.1396 59.5714 16.0949 59.3775 16.0701C58.5921 15.9707 58.0504 15.7171 57.608 15.2499C57.4389 15.066 57.2849 14.8622 57.27 14.7926C57.1954 14.5043 57.5582 14.1066 58.11 13.8531C58.7264 13.5698 59.3825 13.4406 61.5745 13.1771C62.8968 13.0231 64.4376 12.6552 64.9944 12.3669C65.0789 12.3222 65.2429 12.2824 65.3572 12.2774C65.7848 12.2625 65.8842 12.5806 65.8245 13.7537C65.7748 14.7429 65.8742 14.7677 66.3713 13.878C66.6297 13.4157 66.759 13.0926 66.9181 12.526C66.9926 12.2526 67.1169 12.1084 67.2212 12.178C67.2461 12.1979 67.3306 12.2973 67.4052 12.4017C67.5941 12.6503 67.6935 12.7099 68.2601 12.9136C68.6479 13.0528 68.8666 13.0926 69.3686 13.1374C69.8955 13.1771 70.0993 13.2219 70.5964 13.3908C71.0686 13.5499 71.2773 13.5947 71.5855 13.6046C72.1323 13.6195 72.1621 13.6643 72.1621 14.3701C72.1571 14.6584 72.1274 15.076 72.0876 15.2947C72.0478 15.5134 72.013 15.7022 72.013 15.7122C72.013 15.7271 72.0925 15.6625 72.187 15.568C72.2814 15.4736 72.361 15.3841 72.361 15.3692C72.361 15.3493 72.4604 15.1853 72.5797 15.0013C72.9723 14.4049 73.186 13.7388 73.3053 12.7596C73.3849 12.0737 73.4843 11.7008 73.713 11.2286C73.9516 10.7365 74.0808 10.3488 74.1703 9.84679C74.2299 9.5237 74.2299 9.42428 74.1703 9.17575C74.0808 8.78804 74.1056 8.68365 74.4188 8.2512C74.5629 8.05238 74.7369 7.78396 74.8065 7.66466C74.9606 7.38631 75.065 6.89918 75.0302 6.59596C74.9606 5.96469 74.2249 5.05506 73.4644 4.66735C72.8978 4.37408 72.3262 4.19017 71.8639 4.1504C71.6601 4.13548 71.4315 4.09075 71.3618 4.05595C71.2873 4.02116 71.1381 3.8273 71.0089 3.60363C70.3826 2.52996 68.792 1.4712 67.3256 1.15805C65.9487 0.864777 64.7658 0.88466 61.3857 1.27237C59.9194 1.44138 59.3725 1.46126 57.4489 1.43143C56.3951 1.41652 55.3662 1.39167 55.1574 1.37179C54.8592 1.3519 54.7697 1.36184 54.72 1.42149C54.5858 1.58055 55.063 1.7595 55.9577 1.88377C56.7779 1.99313 59.2831 1.99313 60.3568 1.88377C61.4702 1.76447 63.8809 1.68494 65.1783 1.7247C66.8087 1.77441 67.435 1.91359 68.5485 2.48522C69.2394 2.83814 69.5475 3.07673 69.9005 3.54398C70.2633 4.0311 70.2186 4.10566 69.483 4.21501C69.2095 4.25478 68.8218 4.33431 68.623 4.38402C67.5692 4.67232 66.6099 4.90097 66.1228 4.98547C64.8055 5.21412 64.6415 5.22903 63.379 5.22903C62.693 5.22903 62.0965 5.24395 62.0517 5.25886C61.9474 5.29862 61.9474 5.45768 62.0517 5.49745C62.0965 5.51236 62.2108 5.52727 62.3102 5.52727C62.4096 5.52727 62.693 5.572 62.9366 5.62669C63.702 5.79569 64.2886 5.76089 66.2719 5.41792C66.6 5.36325 67.2063 5.23897 67.614 5.1495C68.4292 4.96559 68.8666 4.87612 69.5674 4.75682C69.9502 4.6922 70.0496 4.68723 70.1639 4.74191C70.3677 4.84132 70.3578 4.98547 70.1291 5.24891C70.0148 5.37815 69.9054 5.5223 69.8806 5.572C69.811 5.70124 69.1946 6.19334 68.9411 6.31761C68.8268 6.37725 68.5782 6.46176 68.3894 6.50153C68.0464 6.58106 67.8526 6.67053 66.8435 7.20239C66.2122 7.53543 66.073 7.57022 64.9795 7.66963C64.3085 7.72928 62.3649 7.66466 61.8728 7.56525C61.7486 7.54039 61.505 7.52051 61.326 7.51554C61.1471 7.51554 60.9234 7.49566 60.829 7.4708C60.7346 7.44595 60.4462 7.39625 60.1877 7.36145C59.8298 7.31174 59.6857 7.26701 59.5764 7.17754L59.4372 7.05824V6.03428C59.4372 4.86618 59.4272 4.83138 59.0197 4.30946C58.8059 4.04104 58.3238 3.61853 58.0703 3.47935C57.6875 3.26562 56.5691 3.17117 56.0174 3.29544C55.6744 3.37497 55.5352 3.32527 55.3463 3.06182C55.2618 2.93755 55.0729 2.74867 54.9288 2.64428C53.9496 1.89868 52.5727 1.88377 50.7435 2.58961C49.9431 2.90275 48.8845 3.17117 47.9549 3.30041C47.3236 3.38492 44.6246 3.38988 43.9783 3.30041C42.9594 3.16621 42.3381 3.08667 41.7167 3.01211C41.3638 2.97234 41.0308 2.92761 40.986 2.9127C40.9363 2.89779 40.6331 2.84311 40.315 2.7934C39.1468 2.60949 38.3963 2.46534 37.094 2.19195C35.7718 1.90862 35.3343 1.79926 33.4654 1.27734C32.9186 1.12325 32.2824 0.974132 32.0487 0.949279C31.5467 0.899572 31.5119 0.899572 31.3628 0.954249ZM72.5498 4.727C73.3103 4.96559 73.8869 5.40798 74.1902 5.98954C74.4089 6.39714 74.4288 6.63076 74.2995 7.01848C74.0361 7.79887 73.6881 8.06728 73.2408 7.82869C73.1513 7.78396 72.9723 7.72928 72.8331 7.70939C71.834 7.57519 71.2226 7.36145 70.6709 6.95883C70.5069 6.83953 70.303 6.70035 70.2186 6.64567C70.1291 6.591 70.0496 6.52141 70.0397 6.49158C70.0297 6.45678 70.154 6.27784 70.313 6.09393C70.4771 5.90504 70.7405 5.53721 70.8995 5.27874C71.2823 4.65741 71.3668 4.59279 71.8141 4.58782C71.9832 4.58284 72.2615 4.63753 72.5498 4.727ZM50.5496 6.85941C51.0716 6.95385 51.2355 7.01848 51.2355 7.14274C51.2355 7.36642 50.5496 8.04244 49.8437 8.51464C49.1181 8.99681 48.1488 9.29505 47.5076 9.2354C46.7868 9.17077 45.5591 8.66874 44.883 8.1667C44.4705 7.85852 43.8293 7.20736 43.8293 7.09801C43.8293 7.06321 43.859 7.00853 43.8939 6.97871C43.9833 6.89918 45.0769 6.81965 46.1108 6.81467C46.593 6.80971 47.2541 6.78982 47.5821 6.76994C48.5365 6.71029 49.9431 6.75006 50.5496 6.85941ZM40.986 10.5079C40.9711 10.5427 40.832 10.6719 40.6679 10.7962C40.5088 10.9155 40.2255 11.164 40.0416 11.3429C39.7334 11.6412 39.7036 11.6959 39.5794 12.1035C39.47 12.4515 39.4451 12.6005 39.47 12.8491C39.5197 13.4655 39.7433 13.8929 40.2454 14.3502C40.7077 14.7627 41.0357 14.8672 41.9205 14.8672C42.6363 14.8721 42.8998 14.8125 43.8243 14.4546C44.1026 14.3403 44.3064 14.2856 44.3362 14.3154C44.3611 14.3403 44.2866 14.4596 44.1474 14.6037C43.869 14.892 43.6155 15.2797 43.4465 15.6625C43.2626 16.0701 43.2725 16.5522 43.4614 16.9399C43.6602 17.3326 43.8988 17.5165 44.4158 17.6905C44.7836 17.8098 44.9278 17.8297 45.395 17.8297C46.409 17.8297 47.0751 17.5861 48.0693 16.8554C49.0335 16.1446 49.968 15.5929 51.0119 15.1057C51.6332 14.8175 51.9513 14.6932 52.851 14.3751C53.7656 14.052 54.6405 13.9277 54.6405 14.1265C54.6405 14.2011 54.5113 14.2558 53.8949 14.4247C52.8958 14.7081 51.8917 15.404 50.2911 16.93C49.4958 17.6905 48.5613 18.3964 47.5871 18.9829C46.9409 19.3706 46.6775 19.4899 46.0561 19.6888C45.2658 19.9372 44.8284 20.0218 44.0729 20.0864C43.4117 20.1411 42.9147 20.0913 42.2684 19.8925C41.4532 19.639 41.0208 19.2761 40.6778 18.5504C40.5386 18.2522 40.5287 18.1826 40.5237 17.7054C40.5237 17.099 40.6182 16.8256 40.981 16.3782C41.1003 16.2341 41.1948 16.0701 41.1948 16.0105C41.1948 15.911 41.1799 15.906 40.8369 15.9458C40.0416 16.0402 39.0922 15.9458 38.5802 15.7171C37.8098 15.3742 37.3226 14.3751 37.4668 13.4406C37.5712 12.7845 38.0334 12.0786 38.6995 11.5467C39.127 11.2087 40.3498 10.5427 40.6231 10.493C40.9413 10.4383 41.0059 10.4433 40.986 10.5079Z" fill="#EF4751"/>
<path d="M21.4116 13.7139C20.9394 13.7636 20.2981 13.9625 18.9015 14.4893C18.464 14.6534 18.1508 14.6881 16.5652 14.7726C13.6822 14.9168 13.0409 14.9964 12.3053 15.2846C10.5556 15.9805 8.81591 17.5662 8.06534 19.1617C7.73728 19.8576 7.63787 20.2553 7.60804 21.0457C7.57822 21.7416 7.60804 21.8808 7.77207 21.8808C7.80687 21.8808 7.97587 21.6769 8.14488 21.4334C8.31388 21.1849 8.56738 20.8866 8.70656 20.7673C8.99486 20.5237 9.87467 19.957 10.4065 19.6787C11.008 19.3656 11.4156 19.2115 12.3649 18.9231C12.698 18.8237 13.9457 18.6845 14.1991 18.7194C14.741 18.794 14.6713 19.0723 13.9556 19.6588C13.7518 19.8229 13.4685 20.0664 13.3293 20.1907C12.9863 20.4989 11.9723 21.2644 11.3063 21.7167C9.12907 23.1979 8.52265 23.7447 7.74225 24.9128C7.09606 25.8871 6.54432 27.0602 6.30573 27.9698C6.05222 28.9391 5.95778 29.6051 5.91801 30.6341C5.88321 31.6531 5.93789 31.9463 6.09696 31.5835C6.26596 31.2107 7.3943 29.3964 7.66272 29.0733C7.82675 28.8695 8.07529 28.5663 8.20949 28.4023C8.45306 28.0991 8.97995 27.6318 9.22351 27.5026C9.74046 27.2242 10.7346 27.2391 10.844 27.5225C10.9285 27.7412 10.7992 28.1935 10.4612 28.8645C10.1828 29.4262 9.80508 29.973 8.8358 31.2058C8.17967 32.0408 8.01564 32.3042 7.51359 33.3431C6.71829 35.0034 6.63876 35.2817 6.63379 36.4448C6.63379 37.2451 6.64373 37.3495 6.76303 37.7372C7.12092 38.8904 7.14576 38.955 7.59313 39.9243C7.72734 40.2126 7.95101 40.7445 8.09517 41.1122C8.5823 42.3351 8.62703 42.2953 8.632 40.6302C8.632 39.9293 8.65685 39.2334 8.68171 39.0842C8.71153 38.9401 8.73638 38.6269 8.73638 38.3883C8.74136 38.1547 8.77118 37.8018 8.81095 37.6129C8.85568 37.4191 8.90539 37.1308 8.93024 36.9667C8.95509 36.8027 9.00977 36.5691 9.05451 36.4498C9.09925 36.3305 9.13404 36.1863 9.13404 36.1317C9.13404 35.9875 9.44719 35.3463 9.57146 35.2369C9.70567 35.1177 9.994 35.1077 10.1182 35.2171C10.2475 35.3314 10.4015 35.8632 10.4811 36.4349C10.5507 36.9618 10.5208 37.7372 10.4015 38.4431C9.9194 41.3558 9.90946 41.6392 10.2525 43.0657C10.5656 44.3482 10.9683 45.1534 11.8281 46.2172C12.6384 47.2212 13.6424 47.7531 13.1106 46.8981C12.9217 46.595 12.5589 45.6008 12.5091 45.2429C12.3898 44.4079 12.3898 44.373 12.5439 44.2537C12.6483 44.1742 12.7278 44.1494 12.8272 44.1693C13.0062 44.2041 13.1056 44.3233 13.3542 44.7955C13.5679 45.2032 13.5977 45.238 14.0053 45.5163C14.1544 45.6207 14.562 45.9786 14.9099 46.3066C15.6903 47.0473 15.8196 47.2759 15.8146 47.9022C15.8096 48.3893 15.7649 48.4838 15.2877 48.9759C14.5918 49.6917 13.6772 50.0048 12.872 49.806C12.4992 49.7166 12.1562 49.4481 11.5846 48.8069C11.2864 48.4788 10.9434 48.0961 10.8191 47.9569C10.6948 47.8177 10.3618 47.4102 10.0784 47.0572C9.79514 46.6993 9.44719 46.2719 9.29807 46.0979C9.15392 45.9289 8.7165 45.3125 8.32879 44.7309C7.53348 43.5479 6.99664 42.9366 6.4101 42.5538C5.90309 42.2208 5.64462 42.171 5.05808 42.2853C4.63558 42.3748 4.59084 42.3748 4.27271 42.3003C3.3432 42.0716 2.35403 42.1959 1.77743 42.6134C1.66311 42.693 1.57861 42.7874 1.59352 42.8222C1.60346 42.8619 1.85696 42.8918 2.40374 42.9117C3.21396 42.9464 3.59173 43.0161 4.0043 43.2099C4.28265 43.3491 4.33236 43.4535 4.31745 43.9008C4.30751 44.2338 4.32242 44.2935 4.43675 44.4476C4.72007 44.8303 5.11773 45.1783 5.82854 45.6605C6.60397 46.1873 6.7332 46.2669 7.34459 46.5999C7.91125 46.9031 8.33873 47.2361 8.33873 47.3654C8.33873 47.4847 8.06534 47.4349 7.78699 47.266C7.63787 47.1765 7.34957 47.0174 7.14576 46.9131C6.94197 46.8037 6.51946 46.5751 6.21128 46.401C5.9031 46.2271 5.30661 45.909 4.89405 45.7002L4.13851 45.3175H3.69115C3.29846 45.3175 3.20899 45.3324 2.96045 45.4617C2.80637 45.5412 2.53298 45.735 2.35403 45.8891C2.08561 46.1277 1.98124 46.1923 1.74264 46.242C1.08154 46.3862 0.152024 47.0224 0.057581 47.4002C-0.00206717 47.6488 0.102317 47.6636 0.495 47.4698C0.703769 47.3654 0.972185 47.2759 1.13124 47.256C1.28036 47.2411 1.55872 47.2063 1.74761 47.1815C2.36397 47.1069 2.44848 47.1517 3.0201 47.8277C3.19408 48.0364 3.32332 48.1308 3.65635 48.28C3.885 48.3893 4.10869 48.4738 4.15342 48.4738C4.26277 48.4738 5.65954 48.8914 5.78877 48.9659C5.84345 48.9908 5.97766 49.0405 6.08204 49.0653C6.42502 49.1499 7.20541 49.4531 7.89137 49.7612C8.2592 49.9253 8.59224 50.0645 8.62703 50.0645C8.76621 50.0645 9.54661 50.487 9.62116 50.6013C9.80011 50.8746 9.45714 50.8449 8.36359 50.5019C8.19955 50.4522 7.8516 50.3528 7.59313 50.2782C7.33465 50.2086 7.0215 50.1241 6.89723 50.0893C6.77297 50.0546 6.40514 49.9552 6.07707 49.8656C5.74901 49.7762 5.3265 49.6618 5.13265 49.6121C4.33734 49.3984 3.74085 49.2741 3.62156 49.3039C3.24875 49.3934 3.08969 49.5823 2.91572 50.144C2.74672 50.6908 2.65227 50.825 2.15024 51.1779C1.58855 51.5755 0.967215 52.2168 0.803182 52.5647C0.678915 52.8381 0.644121 53.2159 0.738564 53.2756C0.773358 53.2954 0.952303 53.1463 1.17599 52.9127C1.88182 52.167 2.41368 51.9135 2.81133 52.1224C2.8859 52.1621 3.08969 52.346 3.26367 52.5249C3.70109 52.9872 3.84523 53.0469 4.60078 53.0469C5.06802 53.0469 5.31656 53.022 5.61977 52.9425C6.50952 52.7139 7.40922 52.9177 8.35861 53.5588C8.51767 53.6682 8.8855 53.9615 9.1738 54.2101C10.8986 55.7062 11.3957 56.0293 11.9574 56.0293C12.2854 56.0293 12.8869 56.1883 13.2398 56.3673C13.5729 56.5363 13.876 56.7948 14.905 57.7889C15.3076 58.1766 15.7351 58.5693 15.8594 58.6638C16.2918 58.9968 16.3117 59.0614 16.3167 59.976C16.3167 60.9353 16.3565 60.9751 16.6646 60.3587C16.8337 60.0257 16.8883 59.8418 16.938 59.4889C17.0424 58.6737 17.0871 58.4947 17.3008 58.0424L17.5097 57.595V56.924C17.5097 56.2629 17.5097 56.248 17.3207 55.7808C17.1964 55.4825 17.0026 55.1345 16.7889 54.8363C16.1974 54.0062 16.1179 53.7478 16.2669 53.0816C16.421 52.3957 16.8237 51.8887 17.6637 51.332C18.2851 50.9144 18.5087 50.8399 19.1251 50.8399L19.647 50.8349L20.5666 51.2972C21.0736 51.5458 21.8242 51.9284 22.2318 52.1373C23.385 52.7237 24.7569 53.1513 25.7709 53.2457C26.0244 53.2706 26.2531 53.3003 26.2779 53.3153C26.3724 53.375 28.982 53.3451 29.315 53.2805C29.9115 53.1612 29.7822 53.0966 28.2363 52.7287C27.1329 52.4653 25.4875 51.834 24.5183 51.3022C23.1315 50.5466 21.1183 49.1002 20.0944 48.1259C19.9304 47.9718 19.6968 47.7531 19.5775 47.6488C18.8368 46.9975 17.629 45.3821 16.9132 44.0946C15.9141 42.3052 15.5859 41.4006 15.0243 38.8854C14.9448 38.5275 14.8851 37.9808 14.8155 36.9965C14.7807 36.4796 14.8553 35.1375 14.9796 34.1086C15.0243 33.7408 15.079 33.2238 15.1039 32.9653C15.1286 32.7069 15.1684 32.3937 15.1983 32.2694C15.2232 32.1451 15.2678 31.9314 15.2927 31.7972C15.3921 31.2604 15.755 30.1817 16.2073 29.0633C16.6 28.0891 16.6795 27.9251 16.938 27.4727C17.5444 26.4239 17.8626 25.6386 18.0863 24.6395C18.1409 24.3909 18.2204 24.048 18.2602 23.869C18.3 23.6901 18.3646 23.367 18.4093 23.1483C18.5733 22.2734 19.0704 20.5535 19.4084 19.6937C19.5973 19.2115 20.2385 17.9539 20.5517 17.4469C20.7008 17.2033 20.9543 16.8653 21.1133 16.6963C21.675 16.0949 22.2119 15.389 22.4107 14.9964C22.5698 14.6732 22.6095 14.544 22.6095 14.3055C22.6145 13.9823 22.5101 13.7785 22.3014 13.7239C22.1771 13.6891 21.6999 13.6841 21.4116 13.7139Z" fill="#EF4751"/>
<path d="M28.8427 23.7449C28.2114 23.9636 27.0533 24.5352 26.6308 24.8335C26.4518 24.9627 26.1237 25.1913 25.9001 25.3504C24.722 26.1805 23.4196 27.458 22.7635 28.4322C20.8648 31.2506 20.1341 34.9836 20.8399 38.2444C21.0735 39.3181 21.1879 39.7505 21.3916 40.3718C21.7595 41.4703 22.6592 43.0908 23.4893 44.1496C23.9715 44.7609 25.5372 46.3217 26.1088 46.7591C27.0383 47.47 27.5553 47.8576 27.7492 47.9819C28.2264 48.3001 29.479 49.0058 31.154 49.9155C31.8897 50.3132 33.2368 51.0935 33.4158 51.2278C33.5002 51.2875 33.7984 51.4813 34.0868 51.6552C34.6236 51.9783 34.8124 52.1075 35.8463 52.8731C37.4917 54.0909 38.4162 55.0154 38.7145 55.7312C38.804 55.9549 38.8089 56.9739 38.7145 57.2373C38.5654 57.6797 38.2224 57.8934 37.3227 58.1271C36.6417 58.3011 36.3982 58.4005 36.0701 58.6441C35.7867 58.8528 35.6029 59.1411 35.5531 59.4592C35.5083 59.7425 35.4587 59.832 35.2251 60.0905C35.0163 60.3191 34.8771 60.5677 34.7031 61.0349C34.6037 61.2983 34.5838 61.4574 34.569 62.0091C34.559 62.5808 34.569 62.6653 34.6435 62.6802C34.6981 62.6901 34.7628 62.6156 34.8522 62.4118C34.9218 62.2577 34.9815 62.1085 34.9815 62.0788C34.9815 61.9794 35.4189 61.368 35.6177 61.189C35.732 61.0896 35.916 60.9553 36.0353 60.8957C36.2391 60.7914 36.3086 60.7864 37.7153 60.7814C38.9679 60.7764 39.2463 60.7615 39.6092 60.682C40.1759 60.5528 40.4194 60.6124 40.6878 60.9405C41.0606 61.3928 41.682 62.0141 42.1642 62.4168C42.6413 62.8194 43.2626 63.4507 43.541 63.8334C43.7647 64.1317 43.9088 64.4796 44.0281 65.0015C44.2916 66.1398 44.3214 66.1995 44.7936 66.4231C45.1664 66.602 45.3603 66.602 45.7877 66.443C46.3643 66.2243 46.5185 66.2889 46.8316 66.8506C47.105 67.3427 47.269 67.9143 47.2939 68.4561C47.3287 69.2266 47.3634 69.2763 47.6717 69.0078C48.0693 68.6549 48.2532 67.969 48.124 67.3328C48.0296 66.8854 47.9301 66.5871 47.7014 66.0553C47.4976 65.598 47.4777 65.4488 47.5076 64.6983C47.5225 64.3155 47.5126 64.2709 47.3287 63.8831C47.2243 63.6545 47.0453 63.3413 46.936 63.1822C46.6974 62.8393 46.0064 62.039 45.4149 61.4226C45.1763 61.1791 44.8134 60.7764 44.6047 60.5329C44.0928 59.9314 44.0977 59.7624 44.6097 59.9563C45.3454 60.2297 47.5474 61.4226 48.6508 62.1384C49.5953 62.7548 49.9631 62.8691 50.5248 62.72C50.8678 62.6355 51.5786 62.2975 51.678 62.1732C51.8619 61.9545 52.2845 62.1583 52.8362 62.7249C53.1593 63.0629 53.3481 63.3761 53.5718 63.9576C53.6961 64.2857 53.7855 64.41 53.8601 64.3653C53.9446 64.3106 53.9695 63.4009 53.895 62.9884C53.8203 62.556 53.5022 61.8699 53.1493 61.3729C52.8312 60.9206 52.7815 60.8013 52.7268 60.3042C52.697 60.0507 52.6522 59.8071 52.6274 59.7575C52.5279 59.5686 51.9961 59.156 51.6133 58.9671C51.1809 58.7534 50.9423 58.6887 49.9034 58.4899C49.0882 58.3358 47.776 58.0078 47.3883 57.8536C47.0752 57.7343 46.9758 57.6349 47.0304 57.4958C47.0602 57.4162 47.1447 57.4113 48.2184 57.4411C51.9563 57.5355 52.1552 57.5355 52.4285 57.471C52.8511 57.3765 53.3084 57.0832 53.5967 56.7253C54.1683 56.0145 54.1484 56.0294 54.4715 56.0294C54.894 56.0294 55.4408 56.268 55.8136 56.611C56.1516 56.9291 56.256 56.949 56.256 56.7004C56.256 56.1388 55.3115 55.1795 54.6405 55.0602C54.2677 54.9905 54.0987 54.8663 53.88 54.5035C53.6116 54.0462 53.3879 53.8771 52.9654 53.7927C52.697 53.7429 52.5578 53.7429 52.2943 53.7927C51.7923 53.8821 50.4751 54.3046 49.5208 54.6874C48.4371 55.1198 47.7014 55.3335 46.6378 55.5324C45.574 55.7262 44.1573 55.602 43.2079 55.2291C42.3878 54.9011 42.2188 54.742 41.7913 53.8871C41.5229 53.3553 41.4086 53.1862 40.9712 52.6742C40.6232 52.2766 40.5487 52.1125 40.5487 51.7845C40.5487 51.5508 40.5685 51.4962 40.663 51.4315C40.9363 51.2526 41.4434 51.0886 41.9156 51.029C42.7456 50.9196 44.3115 50.6313 44.5252 50.5518C44.5947 50.5219 44.9278 50.4275 45.2708 50.3331C45.6138 50.2386 45.9468 50.1441 46.0164 50.1193C46.0859 50.0945 46.3295 50.0248 46.5631 49.9652C46.9956 49.8559 47.1795 49.7962 47.9003 49.5228C48.7006 49.2147 49.6648 48.7623 51.5488 47.8129C53.5371 46.8138 53.7905 46.6895 55.0879 46.1228C56.425 45.5413 56.5145 45.5065 58.2642 44.92C59.8399 44.393 60.5159 44.2042 61.2466 44.0948C61.4056 44.07 61.6691 44.0153 61.8282 43.9755C62.9167 43.6923 65.8692 43.5928 67.117 43.7966C68.5385 44.0303 69.7315 44.4478 70.5814 45.0094C70.9791 45.2779 71.7099 46.0533 71.9485 46.4708C72.0628 46.6647 72.2168 47.0127 72.2914 47.2413C72.5151 47.9273 72.5151 49.1649 72.2865 50.2386C72.0578 51.3222 71.4165 52.1722 70.4423 52.6991C69.5923 53.1564 69.5774 53.1613 69.2294 53.1663C68.966 53.1713 68.8765 53.1514 68.7423 53.057C68.2105 52.6742 66.7043 50.338 65.8891 48.6232C64.6913 46.108 64.383 45.7302 63.3591 45.5215C63.1553 45.4817 62.703 45.3723 62.3451 45.2729C61.838 45.1337 61.6094 45.0939 61.2763 45.0939C60.7445 45.0939 60.2574 45.2281 60.2574 45.3723C60.2574 45.4419 60.2972 45.4717 60.4065 45.4817C61.008 45.5512 62.0866 45.9688 62.3451 46.2421C62.4743 46.3714 62.4892 46.4311 62.524 46.9083C62.5488 47.1965 62.5936 47.4849 62.6235 47.5445C62.7874 47.8477 63.5579 48.7226 64.5371 49.7216C64.9845 50.174 65.2032 50.4275 65.2032 50.502C65.2032 50.7356 64.9944 50.6213 64.383 50.0596C62.8868 48.6678 62.3252 48.2304 61.7486 47.9918C61.4056 47.8477 61.013 47.8974 60.4413 48.1559C60.2524 48.2404 60.0884 48.2752 59.8598 48.2752C59.4124 48.2752 58.8209 48.469 58.5027 48.7226C58.2542 48.9214 58.1697 49.0407 58.2244 49.1251C58.2393 49.15 58.6022 49.1699 59.0346 49.1699C60.1231 49.1699 60.4512 49.2942 60.5705 49.7415C60.6501 50.0348 60.8638 50.353 61.1223 50.5567C61.2317 50.6462 61.6044 50.85 61.9573 51.014C62.7477 51.3918 63.041 51.5658 63.7617 52.1026C64.0749 52.3412 64.5222 52.6693 64.7558 52.8333C65.3324 53.2458 65.6258 53.5143 65.581 53.5839C65.5163 53.6883 65.2529 53.6485 65.0392 53.5043C64.8304 53.3651 64.6714 53.2707 63.548 52.6643C63.2298 52.4903 62.703 52.1772 62.3799 51.9684C61.5896 51.4564 61.2167 51.2825 60.8986 51.2825C60.5557 51.2825 60.2822 51.4614 60.1331 51.7894C59.8498 52.4058 59.9094 52.3511 59.2633 52.5997C59.0446 52.6792 58.7861 52.7985 58.6867 52.8582C58.2045 53.1613 57.6478 53.723 57.6478 53.912C57.6478 54.056 57.792 54.061 57.9858 53.9219C58.0902 53.8523 58.3636 53.7131 58.5972 53.6186C59.2483 53.3503 59.6411 53.3999 59.8895 53.7728C59.9592 53.8771 60.0785 54.061 60.158 54.1803C60.4165 54.5681 61.0775 54.8365 61.7933 54.8365C62.5289 54.8415 62.9565 54.9856 63.5678 55.4478C63.9058 55.6964 64.4924 56.3426 64.9199 56.9192C66.0929 58.5098 66.1078 58.5297 66.7143 58.7682C67.3803 59.0317 67.783 59.2604 67.9619 59.4791C68.0514 59.5934 68.4093 60.1054 68.7622 60.6273C69.1101 61.1443 69.478 61.6662 69.5774 61.7855C69.6818 61.8998 69.7762 62.0539 69.7911 62.1284C69.806 62.1981 69.8011 62.5311 69.7861 62.8691C69.7614 63.5352 69.7812 63.5849 70 63.3661C70.154 63.2121 70.338 62.8393 70.4771 62.4118C70.5368 62.2229 70.6908 61.8551 70.825 61.5966C70.9543 61.3381 71.0785 61.0449 71.0935 60.9405C71.1382 60.7119 70.9592 60.0855 70.6461 59.335C70.333 58.5943 70.2733 58.3607 70.2733 57.8636C70.2733 57.5057 70.2932 57.4013 70.4025 57.1826C70.6859 56.616 71.5159 56.1288 72.2218 56.1288C72.5498 56.1288 72.7089 56.278 72.8531 56.7104C72.9625 57.0336 72.9674 57.1081 72.9426 57.9928C72.9127 59.0466 72.8581 59.6878 72.7388 60.4285C72.694 60.7019 72.6245 61.1493 72.5797 61.4226C72.4703 62.0937 72.4058 62.7001 72.4405 62.7349C72.5052 62.7995 72.6444 62.6305 72.7487 62.3621C72.8779 62.039 73.0768 61.5568 73.4794 60.6024C73.6235 60.2594 73.7627 59.9115 73.7926 59.832C73.8223 59.7475 73.9367 59.4244 74.051 59.1112C74.389 58.1718 74.727 57.0782 74.8413 56.5763C74.901 56.3178 74.9905 55.935 75.0452 55.7312C75.234 54.9756 75.3036 54.6525 75.3484 54.2649C75.3683 54.0462 75.4229 53.564 75.4677 53.1962C75.577 52.1921 75.5621 51.1979 75.4179 50.1144C75.3533 49.6073 75.2639 49.0705 75.2191 48.9214C75.1744 48.7722 75.0948 48.479 75.0352 48.2752C74.7419 47.2164 74.4586 46.5703 73.9267 45.7501C73.4297 44.9746 72.4753 43.9606 71.8888 43.5779C71.7248 43.4735 71.511 43.3344 71.4165 43.2747C71.1879 43.1255 70.3081 42.713 69.8011 42.5192C69.2294 42.3005 68.5236 42.1364 67.6538 42.0121C66.9827 41.9177 66.7342 41.9077 65.5661 41.9276C63.7418 41.9575 62.4445 42.1115 60.1331 42.5837C58.274 42.9615 56.1417 43.5431 54.4417 44.1346C54.0888 44.2539 53.5072 44.4577 53.1493 44.577C52.7964 44.6963 52.349 44.8603 52.1552 44.9399C51.9663 45.0244 51.5289 45.1983 51.1859 45.3325C50.8429 45.4717 50.2912 45.6954 49.9532 45.8346C49.2722 46.1228 48.9739 46.1577 49.0535 45.9539C49.1081 45.8097 51.002 44.5472 52.3789 43.7419C52.9256 43.4188 54.8294 42.5042 55.4856 42.2457C56.1218 41.9972 57.3495 41.5747 57.8466 41.4355C58.0802 41.3709 58.4282 41.2715 58.6171 41.2168C59.5267 40.9583 59.6808 40.9186 59.7901 40.9186C59.8548 40.9186 60.0536 40.8738 60.2325 40.8192C60.4115 40.7645 60.6252 40.7197 60.7047 40.7197C60.7893 40.7197 60.9682 40.685 61.1024 40.6452C61.2416 40.6004 61.5299 40.5458 61.7486 40.5209C61.9673 40.496 62.2606 40.4514 62.3948 40.4165C62.5339 40.3867 62.8471 40.347 63.0907 40.3221C63.7717 40.2624 65.1237 40.1283 65.6505 40.0736C65.909 40.0437 66.257 40.0238 66.4211 40.0238C66.8684 40.0238 67.4897 39.9194 67.4897 39.8449C67.4897 39.7057 67.0224 39.5517 65.8246 39.2832C64.2538 38.9303 64.0003 38.9104 61.6492 38.9154C59.6957 38.9204 59.4621 38.9303 58.9699 39.0247C58.6668 39.0844 58.3288 39.1291 58.2144 39.1291C58.1001 39.1291 57.8068 39.1739 57.5633 39.2235C57.3247 39.2783 56.9021 39.3677 56.6288 39.4274C56.3554 39.487 55.9975 39.5665 55.8335 39.6013C55.3762 39.7107 55.1922 39.7157 55.1723 39.6163C55.1525 39.5069 55.3066 39.3727 55.5949 39.2584C55.7242 39.2087 55.9925 39.0993 56.1815 39.0148C57.3744 38.5029 59.1589 37.8964 60.0685 37.6926C61.8529 37.2999 64.4527 37.275 66.3216 37.6429C67.4649 37.8715 68.8418 38.3338 70 38.8806C70.2882 39.0148 70.5368 39.1291 70.5517 39.1291C70.6362 39.1291 72.2317 40.1333 72.5996 40.4215C73.6783 41.2616 74.1455 41.7735 75.4527 43.558C75.9548 44.249 76.1536 44.5969 76.7551 45.8396C77.8784 48.1758 78.2363 49.9204 78.0822 52.2766C78.0525 52.7389 78.0077 53.2558 77.9778 53.4198C77.8188 54.4537 77.7641 54.7967 77.7293 55.0602C77.7044 55.2242 77.6647 55.4677 77.6349 55.6069C77.605 55.7412 77.5603 55.9798 77.5305 56.1288C77.4311 56.7303 76.9439 58.5098 76.6607 59.3151C76.2232 60.5478 75.0899 62.9635 74.3045 64.3404C73.5142 65.7272 71.9335 68.0336 71.1283 68.9831C70.9642 69.1719 70.6958 69.5 70.5318 69.7037C70.3677 69.9076 69.9303 70.3947 69.5625 70.7924C69.1897 71.19 68.6777 71.7368 68.4242 72.0101C67.9321 72.5421 66.6348 73.7499 66.0979 74.1773C65.919 74.3165 65.6854 74.5154 65.571 74.6198C65.4567 74.7242 65.1932 74.9379 64.9795 75.0969C64.7658 75.261 64.4129 75.5294 64.1892 75.6984C63.9705 75.8724 63.6524 76.106 63.4883 76.2204C62.8868 76.6428 61.351 77.8159 61.3062 77.8855C61.2317 78.0147 61.346 78.0595 61.5547 77.9849C61.6591 77.9452 61.9077 77.8606 62.0965 77.801C64.2786 77.0902 66.1974 76.0563 68.464 74.3613C70.159 73.0938 70.825 72.5172 72.4206 70.9563C73.0469 70.345 73.2855 70.1462 73.375 70.1462C73.5341 70.1462 73.5142 70.2008 73.1861 70.693C72.5449 71.6522 71.0487 73.2429 69.4631 74.6496C68.0464 75.9022 67.2213 76.5285 65.9736 77.3039C65.5661 77.5574 65.1137 77.8358 64.9745 77.9303C63.9755 78.5714 61.51 79.7346 60.0586 80.2466C59.9791 80.2764 59.81 80.341 59.6857 80.3907C59.0495 80.6392 57.7024 81.0816 57.5733 81.0816C57.5335 81.0816 57.3048 81.1413 57.0662 81.2109C56.8226 81.2805 56.43 81.3799 56.1815 81.4296C55.9379 81.4843 55.5899 81.5588 55.4109 81.5986C54.5908 81.7924 52.8809 82.036 52.0309 82.0808C51.6631 82.0957 50.9224 82.1503 50.3906 82.2001C49.6251 82.2647 49.1529 82.2746 48.129 82.2497C47.4181 82.2348 46.6675 82.2001 46.4637 82.1752C46.26 82.1503 45.8226 82.1056 45.4945 82.0808C45.1664 82.0559 44.719 82.0062 44.5003 81.9764C44.2816 81.9466 43.9934 81.9117 43.8542 81.8968C43.7199 81.8819 43.4068 81.8273 43.1583 81.7775C42.9147 81.7279 42.4524 81.6483 42.1393 81.6036C41.8261 81.5538 41.4434 81.4992 41.2942 81.4793C41.1451 81.4544 40.9015 81.4345 40.7574 81.4345C39.9174 81.4196 41.2942 81.9466 43.2328 82.379C44.2518 82.6027 44.5749 82.6723 45.1962 82.7916C45.5541 82.8612 46.1655 82.9854 46.5631 83.0699C48.964 83.577 52.0459 83.6863 54.3174 83.3433C54.5759 83.3085 54.9586 83.2588 55.1624 83.2439C55.3663 83.224 55.6098 83.1892 55.6943 83.1643C55.8931 83.0998 56.0572 83.1444 56.0572 83.2637C56.0572 83.4029 55.9826 83.4427 55.3862 83.6117C55.0879 83.6963 54.6604 83.8205 54.4417 83.8901C53.8203 84.0889 53.4425 84.1585 52.3341 84.2579C51.0566 84.3772 50.3856 84.4169 49.3567 84.4319C48.5216 84.4468 48.3526 84.4866 48.5017 84.6307C48.6658 84.7848 49.1181 84.8544 50.1172 84.8842C50.664 84.8991 51.6332 84.9489 52.2695 84.9935C53.4475 85.0781 54.1186 85.0582 55.3016 84.9041C55.5005 84.8792 55.7788 84.8594 55.913 84.8594C56.0522 84.8594 56.256 84.8395 56.3703 84.8146C56.4846 84.7898 56.7382 84.7451 56.927 84.7152C58.3288 84.5015 59.1539 84.3474 59.8845 84.1635C60.0884 84.1138 60.327 84.0542 60.4065 84.0392C60.6202 83.9945 62.4843 83.4776 62.8669 83.3583C63.5579 83.1346 64.7558 82.6773 65.4766 82.3641C65.9339 82.1603 67.3257 81.4743 67.6388 81.2954C68.285 80.9226 68.5286 80.7685 69.1052 80.3857C69.4631 80.1471 69.8905 79.8539 70.0596 79.7346C70.2236 79.6153 70.5716 79.3667 70.83 79.1829C72.2218 78.1838 74.1256 76.3843 75.0998 75.1417C76.0989 73.8742 76.1238 73.7847 75.3533 74.2171C73.5042 75.256 73.037 75.4151 72.6245 75.1616C72.3958 75.0174 72.3461 74.8782 72.4405 74.6049C72.5548 74.2719 73.027 73.72 74.5332 72.1593C76.253 70.3749 77.5156 69.0427 77.8934 68.6102C78.0525 68.4312 78.455 67.969 78.7881 67.5913C79.1211 67.2135 79.4244 66.8556 79.4641 66.796C79.5039 66.7363 79.6431 66.5673 79.7673 66.4182C80.0954 66.0304 80.8608 64.9319 81.4026 64.067C82.6552 62.0589 83.5847 60.1253 84.1514 58.3159C84.236 58.0575 84.4099 57.5057 84.5391 57.0981C84.8225 56.2233 85.0213 55.4329 85.0859 54.916C85.1853 54.1307 85.4239 53.9219 86.2044 53.9269C86.6467 53.9269 86.935 54.0511 87.3028 54.394C87.8198 54.8862 87.79 54.7669 87.8149 56.7104L87.8298 58.4104L88.0186 58.6987C88.123 58.8578 88.3119 59.2454 88.4361 59.5636C88.6598 60.1203 88.9034 60.503 89.0326 60.503C89.0824 60.503 89.0923 60.4185 89.0724 60.16C89.0575 59.8967 89.0774 59.7326 89.1669 59.4344C89.2613 59.1014 89.321 59.0019 89.5893 58.7086C89.9323 58.3358 89.997 58.2364 90.146 57.794C90.4145 56.9987 90.4294 56.8794 90.4294 54.8862C90.4344 52.7737 90.4195 52.8731 90.9066 51.357C91.2297 50.3679 91.4036 49.8011 91.5727 49.2444C91.6422 48.9959 91.7318 48.7076 91.7715 48.5983C92.6364 45.9986 92.88 44.398 92.6711 42.6385C92.6165 42.1762 92.5916 42.0818 92.4972 42.0071C92.4325 41.9525 92.3331 41.9127 92.2735 41.9127C92.0847 41.9127 92.0449 41.8183 92.0449 41.3908C92.0449 40.8689 92.1194 40.4265 92.2785 39.999C92.4425 39.5467 92.4624 39.4472 92.4028 39.4075C92.3331 39.3627 91.8659 39.7505 91.6621 40.014C91.4733 40.2624 91.2496 40.9286 91.2496 41.2467C91.2496 41.5598 91.1353 41.7536 90.8817 41.858C90.6033 41.9823 90.4195 42.2059 90.3846 42.4744C90.3697 42.5887 90.3449 43.0063 90.33 43.4039C90.2803 44.7559 90.161 45.8097 89.9771 46.5305C89.8528 47.0276 89.7783 47.1717 89.6887 47.0822C89.6242 47.0176 89.6391 45.7998 89.7186 44.2986C89.7981 42.7379 89.6987 42.2756 89.147 41.5896C88.9829 41.3859 88.9332 41.2516 88.799 40.6701C88.7542 40.4911 88.6747 40.1779 88.6151 39.9742C88.5554 39.7704 88.4958 39.5417 88.4809 39.4671C88.4014 39.0596 88.1379 39.2832 87.9639 39.8996C87.8695 40.2277 87.8496 40.4215 87.8446 41.018V41.7388L87.6707 42.0867L87.4967 42.4347L87.5066 43.1554C87.5116 43.6176 87.5414 43.9905 87.5912 44.1992C87.6508 44.4527 87.6707 44.8206 87.6707 45.9489C87.6707 47.2115 87.6607 47.3804 87.5862 47.455C87.5116 47.5345 87.5016 47.5345 87.452 47.4451C87.3724 47.3009 87.278 46.7392 87.273 46.3863C87.273 46.2074 87.2383 45.8147 87.1985 45.5165C87.114 44.9051 87.0991 44.7609 87.0245 43.9755C86.9003 42.6534 86.7312 41.9227 86.5274 41.8133C86.4528 41.7735 86.3982 41.7934 86.264 41.9127C85.9856 42.1563 85.9061 42.1215 85.7818 41.699C85.7222 41.5052 85.6327 41.2069 85.578 41.0429C85.5234 40.8788 85.4836 40.6402 85.4836 40.5159C85.4836 40.2574 85.3593 39.7952 85.2748 39.7455C85.1903 39.6908 84.9964 39.9642 84.902 40.2724C84.8325 40.4811 84.8126 40.7396 84.8126 41.3759V42.2059L84.6435 42.38C84.4746 42.5539 84.4696 42.5688 84.4795 42.9367C84.4895 43.3691 84.5789 43.7121 84.9915 44.8305C85.0512 44.9895 85.1356 45.2281 85.1853 45.3673C85.3991 45.9489 85.6228 46.9977 85.6625 47.5893C85.7222 48.474 85.8514 48.6033 87.3327 49.2942C87.7999 49.5079 88.5853 50.3629 88.9084 50.9991C89.0724 51.3222 89.1022 51.4962 89.0028 51.5956C88.8835 51.7149 88.7295 51.6552 88.4162 51.357C88.2473 51.188 87.7552 50.8152 87.3277 50.5269C85.6426 49.3737 85.1705 48.8667 84.4248 47.4053C84.1117 46.784 83.7588 45.9191 83.6991 45.6209C83.6743 45.5065 83.6245 45.2729 83.5798 45.0939C83.5351 44.915 83.4654 44.6118 83.4208 44.4229C83.376 44.2291 83.2965 43.8712 83.2368 43.6276C83.1822 43.379 83.1175 42.9317 83.0927 42.6335C83.0728 42.3302 83.028 41.9525 83.0032 41.7884C82.9734 41.6245 82.9137 41.2317 82.874 40.9186C82.7994 40.3619 82.7497 40.1333 82.4813 39.1092C82.3172 38.4879 82.2327 38.304 81.8103 37.623C81.5567 37.2154 81.338 36.942 81 36.609C80.339 35.9579 80.16 35.8236 79.5933 35.5452C79.0615 35.2868 78.5843 35.1675 77.605 35.0582C77.3317 35.0234 77.0136 34.9885 76.8993 34.9736C76.5314 34.9289 76.5711 34.7549 77.0533 34.3871C77.456 34.069 77.8287 33.9596 78.4799 33.9596C79.0466 33.9596 79.4491 34.0392 80.1153 34.2777C80.8459 34.5412 81.353 34.8891 82.0786 35.6199C82.6354 36.1815 82.9585 36.6786 83.2021 37.3546C83.4357 37.9859 83.545 38.0406 83.6444 37.5584C83.719 37.2055 83.6842 36.4947 83.56 35.7242C83.3511 34.4617 82.9585 33.5272 82.2576 32.6474C81.8649 32.1553 81.1044 31.4644 80.5726 31.1114C79.7971 30.5994 78.4451 30.0726 77.3863 29.8738C77.1676 29.829 76.5811 29.8091 75.6416 29.8091C74.3692 29.8091 74.1703 29.824 73.6832 29.9234C73.0569 30.0527 72.689 30.1521 72.3361 30.2813C72.2019 30.336 71.8093 30.4653 71.4663 30.5746C70.5864 30.848 70.149 31.0667 68.5833 31.9962C67.6737 32.5381 66.0582 33.3135 65.7252 33.3631C65.3275 33.4278 64.9199 33.4228 64.7062 33.3483C64.3483 33.224 64.378 32.6574 64.7757 32.0559C65.0044 31.7129 65.6406 31.1065 66.0582 30.833C66.7242 30.3956 67.7333 29.9433 68.6082 29.6798C69.7017 29.3568 70.2534 29.2822 71.6352 29.2872C72.4058 29.2922 72.7388 29.2773 72.7785 29.2375C72.8183 29.1928 72.8083 29.1629 72.7388 29.1182C72.689 29.0884 72.5648 29.0088 72.4654 28.9442C71.7744 28.4869 70.1291 27.7761 69.0804 27.4829C67.8327 27.1349 67.3704 27.0752 66.0731 27.0852C63.9556 27.1001 62.1463 27.4779 60.7047 28.2085C58.7761 29.1878 57.5931 30.0825 56.2361 31.5936C55.3812 32.543 55.4109 32.5032 54.5411 33.6863C53.1941 35.5055 53.1841 35.5205 52.7268 35.8187C52.4186 36.0224 52.1652 36.0523 51.9315 35.9131C51.7326 35.7988 51.683 35.6546 51.683 35.1626C51.683 34.2231 52.2049 33.0749 53.0549 32.1304C53.5668 31.5588 54.3423 30.9523 54.904 30.679C55.3016 30.4901 55.4159 30.4106 55.401 30.346C55.3762 30.2118 55.053 30.0875 54.3721 29.9433C53.2587 29.7147 51.7923 29.7843 50.7634 30.1173C49.3169 30.5846 48.3874 31.0716 47.0652 32.0609C46.4289 32.5381 45.6088 33.3035 45.2708 33.7409C45.1466 33.895 44.8682 34.238 44.6495 34.5014C44.4308 34.7649 44.1573 35.1029 44.043 35.257C43.8144 35.5651 42.8352 37.1011 42.701 37.3546C42.5369 37.6777 42.1194 38.0952 41.7416 38.3139C41.4086 38.5128 41.339 38.5326 41.0507 38.5326C40.7823 38.5326 40.6878 38.5078 40.4294 38.3637C40.2603 38.2692 40.0466 38.1101 39.9522 38.0107L39.7782 37.8318L39.7632 37.1856L39.7434 36.5444L39.9323 36.1666C40.0715 35.8832 40.1808 35.7392 40.3896 35.5701C40.8618 35.1874 41.7466 34.7499 42.6115 34.4766C43.1782 34.2926 43.2328 34.2678 43.2328 34.1833C43.2328 34.059 42.9992 34.0044 42.3331 33.9745C41.836 33.9497 41.5677 33.9696 40.9911 34.054C39.0723 34.3523 38.2025 34.7053 36.1496 36.0175C34.5192 37.0563 33.4853 37.5584 32.7645 37.6578C32.024 37.7622 30.8509 37.1657 29.7971 36.1517C29.2752 35.6546 28.4749 34.5213 28.2114 33.9149C27.933 33.2737 27.6299 32.2348 27.6249 31.8968C27.6249 31.8123 27.5851 31.6135 27.5454 31.4494C27.4907 31.2457 27.4558 30.7983 27.4311 30.008C27.4112 29.2872 27.3813 28.8696 27.3515 28.8746C27.2172 28.8995 27.0383 29.4165 26.7699 30.5796C26.6208 31.2457 26.6159 31.2656 26.6159 32.6672C26.6159 33.7757 26.6308 34.1883 26.7003 34.571C26.7451 34.8444 26.8047 35.2122 26.8296 35.3912C26.919 36.0075 27.5652 37.7373 27.943 38.3836C28.609 39.5119 29.5734 40.675 30.3886 41.3212C30.7117 41.5797 31.0795 41.8531 31.2088 41.9376C32.352 42.6584 32.6353 42.8174 33.0926 42.9914C33.3809 43.1057 33.6941 43.2101 33.7885 43.23C33.9824 43.2647 34.2408 43.3244 35.2052 43.5481C36.1297 43.7618 37.3177 43.8662 38.8835 43.8612C39.5943 43.8562 40.2902 43.8413 40.4244 43.8264C40.8917 43.7618 42.0647 43.5531 42.512 43.4537C42.7606 43.394 43.0788 43.3294 43.2228 43.2995C43.367 43.2747 43.5807 43.22 43.6951 43.1802C43.8094 43.1404 43.9486 43.1057 44.0033 43.1057C44.1673 43.1057 45.2857 42.8124 45.3404 42.7578C45.3702 42.7279 45.4348 42.708 45.4895 42.708C45.584 42.708 45.8523 42.6285 46.4886 42.4098C46.7769 42.3104 47.8506 41.9724 48.4421 41.7884C48.6707 41.7189 48.8745 41.6741 48.8944 41.689C48.9193 41.699 48.9243 41.7685 48.9143 41.8332C48.8795 42.0171 48.6807 42.1115 46.0413 43.1902C45.2708 43.5033 43.541 44.1247 42.9595 44.2986C42.0696 44.5621 40.4591 44.8553 39.4053 44.9449C38.5305 45.0194 36.0999 45.0045 35.4786 44.92C34.3055 44.7609 34.1464 44.736 33.6692 44.6416C32.9783 44.5074 32.8491 44.4677 32.1979 44.2141C31.0596 43.7718 29.6778 43.0361 28.8874 42.4545C28.2264 41.9674 27.1477 40.849 26.5711 40.0487C26.3225 39.7057 25.8553 38.8806 25.6465 38.4332C25.4079 37.9113 25.3831 37.8219 25.0451 36.5295C24.8313 35.7043 24.6475 34.1833 24.6425 33.2091C24.6425 32.4535 24.8363 30.5299 24.9457 30.2465C24.9705 30.1769 25.0153 30.0178 25.0401 29.8887C25.1992 29.1629 25.6217 27.9203 25.8951 27.3834C26.417 26.3594 27.3167 25.3454 28.5693 24.3613C28.9123 24.0928 29.2453 23.8294 29.3149 23.7747C29.3995 23.7101 29.4242 23.6604 29.3895 23.6256C29.3547 23.5908 29.1856 23.6256 28.8427 23.7449Z" fill="#EF4751"/>
<path d="M7.87661 61.2336C7.81696 61.2883 7.83684 61.4324 7.96608 61.8698C8.03567 62.1035 8.14502 62.4763 8.20965 62.7C8.41842 63.4158 8.64707 64.0073 9.09443 65.0263C9.54179 66.0353 10.2278 67.2034 10.864 68.0335C11.6444 69.0575 12.8473 70.0914 13.8364 70.5835C14.5373 70.9363 15.7551 71.3689 16.789 71.6322C17.0226 71.6919 17.3557 71.7814 17.5346 71.8361C17.7135 71.8907 18.0268 71.9802 18.2305 72.0349C19.4136 72.3679 20.3282 72.701 21.5013 73.2328C22.5401 73.7 23.6486 74.9428 23.6486 75.6387C23.6486 75.9667 23.5193 76.1655 23.2261 76.3097C23.0123 76.4141 22.9477 76.4191 22.3413 76.3942C21.6454 76.3693 21.4764 76.3345 20.4674 76.0064C19.4334 75.6684 19.3092 75.5989 17.6838 74.5252C17.2861 74.2668 16.8785 73.9784 16.7742 73.884C16.5703 73.705 16.4759 73.7 16.451 73.8542C16.4262 74.0332 17.5744 76.1954 18.151 77.0553C19.0756 78.4421 20.4822 79.9582 21.879 81.0716C22.4705 81.5438 22.8384 81.7923 23.743 82.2994C24.3594 82.6523 25.0851 83.0698 25.3485 83.2289C26.2383 83.7607 27.4263 84.2678 28.6689 84.6405C29.0666 84.7598 29.4345 84.8592 29.4891 84.8592C29.5438 84.8592 29.7128 84.894 29.8619 84.9338C30.4186 85.0879 31.8949 85.3215 32.8443 85.4061C33.1873 85.4358 33.6992 85.4806 33.9876 85.5055C34.6735 85.57 35.9162 85.57 36.5723 85.5055C37.3775 85.4259 37.9641 85.3563 38.2375 85.3066C38.3767 85.2818 38.655 85.237 38.8589 85.2022C39.4056 85.1127 39.7586 85.0382 40.3997 84.8692C41.2448 84.6455 41.5132 84.5461 41.533 84.4566C41.548 84.3672 41.5679 84.3672 40.6234 84.2678C39.7088 84.1733 38.3469 83.8751 37.5167 83.5917C37.313 83.5271 37.1142 83.4675 37.0793 83.4675C36.9451 83.4675 35.7323 82.9654 35.3048 82.7368C34.0969 82.0856 33.1674 81.2803 32.8443 80.6143C32.6256 80.1619 32.8195 79.7196 33.2967 79.5853C33.416 79.5506 33.8932 79.5108 34.3604 79.4959C35.0712 79.471 35.2054 79.4561 35.2203 79.3865C35.2352 79.312 34.7829 78.9888 32.6803 77.5822C31.0151 76.4737 30.1502 75.7678 29.5488 75.0273C28.9623 74.3115 28.9225 73.9237 29.4196 73.6703C30.1402 73.3074 31.5768 73.715 33.2321 74.7588C34.3156 75.4398 36.0305 76.7571 36.965 77.6169C37.2235 77.8555 37.4522 78.0495 37.477 78.0495C37.5665 78.0495 37.5665 77.9103 37.4671 77.5325C37.2484 76.6626 37.3825 76.0015 37.8348 75.7381C38.0983 75.584 38.2971 75.569 38.7247 75.6834C39.5399 75.8971 41.2895 76.9012 42.6067 77.9202C42.8752 78.129 43.1286 78.2979 43.1684 78.2979C43.2778 78.2979 43.2479 78.0146 43.0839 77.5026C42.9995 77.2442 42.8851 76.8863 42.8304 76.7073C42.393 75.3503 41.6921 73.7548 41.0062 72.5817C40.4296 71.5876 39.8281 70.8122 38.988 69.9671C38.0834 69.0674 37.6858 68.7791 36.4282 68.1081C35.1507 67.4271 33.749 66.8604 32.4219 66.4926C31.5519 66.249 30.3242 65.9905 29.8122 65.9458C29.6333 65.9309 29.3003 65.8961 29.0666 65.8663C28.2116 65.7718 27.7593 65.7569 27.4362 65.8116C27.2524 65.8415 26.8298 65.8961 26.4968 65.9259C26.1588 65.9608 25.8606 66.0054 25.8257 66.0253C25.7064 66.1 25.9003 66.2192 26.964 66.7411C28.3061 67.4022 29.2555 67.944 30.0856 68.5206C31.199 69.2961 31.7607 69.7981 31.8303 70.0814C31.9148 70.4095 31.4824 70.7027 30.871 70.7326C30.3938 70.7574 29.4841 70.5834 29.1163 70.3896C28.5546 70.1013 27.3418 69.2364 26.0594 68.2124C24.3743 66.8754 23.8723 66.4826 23.2807 66.0502C21.4913 64.7429 20.0697 64.0172 18.3299 63.5152C17.9124 63.3959 16.9381 63.2467 16.2025 63.1871C15.8347 63.1622 15.5166 63.1274 15.4917 63.1076C15.4668 63.0927 14.8703 63.0579 14.1645 63.033C11.8581 62.9485 10.9634 62.8292 10.0786 62.4862C9.57658 62.2874 8.70672 61.7903 8.34385 61.4921C7.981 61.1938 7.93626 61.1739 7.87661 61.2336Z" fill="#EF4751"/>
<path d="M66.6694 65.6723C66.4258 65.7221 66.0779 65.7866 65.8989 65.8215C64.8402 66.0103 63.3937 66.5819 62.2952 67.248C61.0476 68.0036 58.7908 70.121 57.7222 71.5377C57.6129 71.6819 57.4637 71.8707 57.3891 71.9602C57.245 72.1243 57.2052 72.2834 57.3046 72.2834C57.3345 72.2834 57.5532 72.174 57.7918 72.0448C59.8247 70.9015 61.2563 70.31 62.1013 70.2602C62.7177 70.2204 62.9264 70.3746 62.8469 70.8169C62.7674 71.2296 61.7981 71.7068 60.3814 72.0348C59.2233 72.3032 59.0444 72.343 58.6914 72.4374C58.0602 72.6015 57.5979 72.7357 56.9766 72.9345C56.6485 73.0389 56.1813 73.1781 55.9327 73.2476C54.1035 73.7547 52.7316 74.6643 51.3398 76.2798C51.0913 76.573 50.8875 76.8315 50.8875 76.8564C50.8875 76.9508 51.0516 76.906 51.5287 76.6774C52.0108 76.4487 52.15 76.3891 53.1491 76.0113C54.8044 75.3851 55.8929 75.3453 55.9476 75.9069C55.9626 76.0511 55.9277 76.1107 55.724 76.3195C54.9386 77.1247 54.2973 77.4678 53.2983 77.6318C52.831 77.7063 52.3588 77.7212 49.9928 77.7262C48.4022 77.7312 47.075 77.761 46.8612 77.7909C45.6335 77.9598 45.3153 78.0245 44.177 78.3476C43.9733 78.4072 43.6601 78.4917 43.4811 78.5414C43.3022 78.5911 42.9344 78.7154 42.6611 78.8148C41.8459 79.108 40.6081 79.446 40.0514 79.5207C39.7631 79.5604 39.3505 79.6201 39.1318 79.6499C38.9131 79.6797 38.1526 79.7095 37.4418 79.7095C36.3284 79.7145 36.1494 79.7244 36.1494 79.789C36.1494 79.9133 36.7758 80.0923 38.088 80.3359C38.252 80.3656 38.5453 80.4253 38.7342 80.465C39.2909 80.5893 39.9072 80.6838 40.1508 80.6838C40.2751 80.6838 40.6081 80.7285 40.8964 80.7832C41.3587 80.8727 41.6271 80.8826 43.2823 80.8826C44.5648 80.8826 45.3949 80.8577 45.9417 80.808C46.3791 80.7633 46.9656 80.7086 47.249 80.6838C47.7758 80.6341 47.915 80.6191 48.427 80.5297C49.5504 80.3359 50.8179 79.973 52.2544 79.4411C52.5576 79.3267 52.9155 79.1975 53.0497 79.1478C53.6363 78.9341 55.0877 78.3078 55.714 77.9996C56.8026 77.4628 57.5532 76.9806 59.0643 75.8374C59.611 75.4248 60.2771 74.9327 60.5505 74.7488C61.1619 74.3213 61.7385 73.8242 62.4691 73.0787C63.3142 72.2187 63.687 71.7713 64.7159 70.3945C64.9942 70.0266 65.3124 69.5992 65.4268 69.45C65.72 69.0574 66.729 67.5214 67.077 66.9398C67.241 66.6664 67.4548 66.3185 67.5542 66.1644C67.6536 66.0103 67.7182 65.8711 67.7033 65.8512C67.6834 65.8364 67.6983 65.8215 67.7282 65.8215C67.7629 65.8215 67.7878 65.7667 67.7878 65.6972C67.7878 65.5779 67.7778 65.5729 67.4548 65.5779C67.2659 65.5779 66.918 65.6226 66.6694 65.6723Z" fill="#EF4751"/>
</g>
<defs>
<clipPath id="clip0_29_162">
<rect width="230" height="85.2259" fill="white" transform="translate(0 0.887207)"/>
</clipPath>
</defs>
</svg>
