<svg width="231" height="87" viewBox="0 0 231 87" fill="none" xmlns="http://www.w3.org/2000/svg">
<path d="M115.51 23.9883V21.2621H114.592C113.139 21.2456 111.867 20.9731 110.776 20.4443C109.702 19.9157 108.867 19.1474 108.273 18.1395C107.694 17.1318 107.406 15.9009 107.406 14.4471C107.406 12.9601 107.719 11.7127 108.347 10.7049C108.975 9.6971 109.834 8.94536 110.925 8.44972C112.015 7.93755 113.262 7.68147 114.666 7.68147H115.51V5.32715H119.053V7.68147H119.797C121.201 7.68147 122.457 7.93755 123.564 8.44972C124.671 8.96189 125.546 9.71361 126.19 10.7049C126.852 11.6962 127.181 12.9271 127.181 14.3975C127.181 15.8679 126.893 17.1152 126.314 18.1395C125.737 19.1474 124.901 19.9157 123.811 20.4443C122.721 20.9731 121.424 21.2456 119.921 21.2621H119.053V23.9883H115.51ZM114.815 18.214H115.51V10.7545H114.815C113.973 10.7545 113.255 10.9114 112.659 11.2254C112.082 11.5393 111.635 11.9688 111.321 12.514C111.023 13.0593 110.875 13.687 110.875 14.3975C110.875 15.141 111.015 15.8018 111.296 16.3801C111.577 16.9418 112.007 17.3879 112.585 17.7183C113.18 18.0487 113.923 18.214 114.815 18.214ZM119.053 18.214H119.772C120.664 18.214 121.399 18.0487 121.978 17.7183C122.555 17.3879 122.985 16.9418 123.266 16.3801C123.548 15.8018 123.687 15.141 123.687 14.3975C123.687 13.687 123.531 13.0593 123.217 12.514C122.919 11.9688 122.481 11.5393 121.903 11.2254C121.324 10.9114 120.606 10.7545 119.747 10.7545H119.053V18.214ZM137.666 23.8395C135.866 23.8395 134.312 23.4595 133.007 22.6996C131.718 21.9395 130.727 20.8905 130.034 19.5522C129.357 18.1974 129.018 16.6443 129.018 14.8931C129.018 13.1088 129.364 11.5393 130.058 10.1845C130.768 8.82971 131.776 7.7806 133.081 7.03713C134.387 6.27714 135.94 5.89714 137.741 5.89714C139.525 5.89714 141.061 6.26888 142.35 7.01234C143.639 7.75582 144.63 8.79667 145.325 10.1349C146.035 11.4731 146.39 13.0345 146.39 14.8187C146.39 16.57 146.035 18.1314 145.325 19.5027C144.63 20.8574 143.631 21.9231 142.325 22.6996C141.036 23.4595 139.484 23.8395 137.666 23.8395ZM137.716 20.5187C138.905 20.5187 139.872 20.2461 140.616 19.7009C141.359 19.1557 141.896 18.4535 142.226 17.5944C142.573 16.7353 142.747 15.8349 142.747 14.8931C142.747 14.1992 142.648 13.5136 142.449 12.8362C142.267 12.1588 141.979 11.5475 141.582 11.0023C141.185 10.4571 140.665 10.0275 140.021 9.71361C139.377 9.38318 138.599 9.21798 137.691 9.21798C136.518 9.21798 135.56 9.49058 134.817 10.0358C134.073 10.5644 133.52 11.2583 133.156 12.1175C132.81 12.9766 132.636 13.8935 132.636 14.8683C132.636 15.8431 132.81 16.76 133.156 17.6192C133.52 18.4783 134.073 19.1804 134.817 19.7257C135.576 20.2543 136.543 20.5187 137.716 20.5187ZM149.151 23.6413V6.0954H152.695V13.3566H160.279V6.0954H163.848V23.6413H160.279V16.6279H152.695V23.6413H149.151ZM166.033 28.0773V20.37C166.71 20.37 167.214 20.1966 167.544 19.8496C167.874 19.5027 168.114 19.073 168.263 18.5609C168.412 18.0322 168.527 17.4787 168.609 16.9005C168.708 16.3222 168.783 15.7357 168.833 15.141C168.882 14.5462 168.915 13.9679 168.932 13.4062C168.998 12.1341 169.047 10.8949 169.081 9.68884C169.114 8.48276 169.13 7.28496 169.13 6.0954H181.521V20.37H183.627V28.0773H180.083V23.6413H169.577V28.0773H166.033ZM171.41 20.37H177.977V9.39144H172.401L172.277 14.9178C172.277 15.2484 172.261 15.6448 172.228 16.1074C172.211 16.5535 172.17 17.0244 172.104 17.5201C172.037 18.0157 171.947 18.5113 171.832 19.007C171.733 19.5027 171.592 19.957 171.41 20.37ZM108.372 51.6169V34.0711H111.916V41.3571H114.418L118.979 34.0711H123.043L117.393 42.5962L123.018 51.6169H118.88L114.542 44.6283H111.916V51.6169H108.372ZM125.047 51.6169V34.0711H131.886C133.225 34.0711 134.39 34.2776 135.381 34.6907C136.388 35.0871 137.166 35.7315 137.71 36.6237C138.256 37.4993 138.529 38.6723 138.529 40.1427C138.529 41.514 138.223 42.6622 137.611 43.5875C137.017 44.5127 136.199 45.2066 135.158 45.6692C134.117 46.1152 132.935 46.3383 131.615 46.3383H128.591V51.6169H125.047ZM128.591 43.1662H131.565C132.622 43.1662 133.456 42.9184 134.067 42.4227C134.696 41.9106 135.01 41.1422 135.01 40.1179C135.01 39.1927 134.745 38.5071 134.216 38.061C133.704 37.5984 132.878 37.3671 131.738 37.3671H128.591V43.1662ZM137.879 51.6169L144.719 34.0711H148.684L155.45 51.6169H151.633L150.543 48.6182H142.786L141.696 51.6169H137.879ZM143.926 45.4213H149.428L146.701 37.838L143.926 45.4213ZM164.453 51.8152C162.652 51.8152 161.116 51.4517 159.843 50.7248C158.588 49.9813 157.63 48.9405 156.968 47.6022C156.324 46.264 156.002 44.7026 156.002 42.9184C156.002 41.101 156.332 39.515 156.993 38.1601C157.671 36.8054 158.637 35.7562 159.893 35.0128C161.149 34.2528 162.661 33.8729 164.428 33.8729C165.766 33.8729 166.964 34.1042 168.022 34.5668C169.079 35.0128 169.929 35.6819 170.574 36.5741C171.235 37.4498 171.648 38.5319 171.814 39.8206H168.394C168.179 39.011 167.74 38.375 167.08 37.9123C166.435 37.4332 165.576 37.1937 164.502 37.1937C163.313 37.1937 162.363 37.4662 161.652 38.0115C160.958 38.5401 160.454 39.234 160.141 40.0932C159.827 40.9357 159.67 41.828 159.67 42.7696C159.67 43.7444 159.835 44.6697 160.166 45.5453C160.495 46.421 161.016 47.1313 161.726 47.6766C162.454 48.2218 163.404 48.4944 164.577 48.4944C165.27 48.4944 165.89 48.3952 166.435 48.197C166.981 47.9822 167.426 47.6766 167.774 47.28C168.137 46.8835 168.385 46.4127 168.517 45.8674H172.061C171.913 47.1396 171.483 48.2218 170.772 49.1139C170.062 50.0061 169.162 50.6834 168.071 51.146C166.981 51.5922 165.775 51.8152 164.453 51.8152ZM174.805 51.6169V34.0711H178.349V41.3323H185.932V34.0711H189.501V51.6169H185.932V44.6035H178.349V51.6169H174.805ZM193.222 51.6169V34.0711H196.766V40.5888H199.369C200.195 40.5888 200.996 40.6715 201.773 40.8366C202.565 40.9854 203.275 41.2579 203.904 41.6545C204.548 42.0345 205.052 42.5714 205.415 43.2653C205.795 43.9427 205.985 44.8101 205.985 45.8674C205.985 46.9744 205.787 47.8996 205.39 48.643C204.994 49.3866 204.457 49.9731 203.78 50.4026C203.102 50.8321 202.334 51.146 201.475 51.3444C200.616 51.5261 199.723 51.6169 198.798 51.6169H193.222ZM196.766 48.3457H198.823C199.319 48.3457 199.789 48.3126 200.236 48.2466C200.681 48.1804 201.07 48.0648 201.401 47.8996C201.748 47.7178 202.011 47.4783 202.193 47.1809C202.392 46.867 202.491 46.4622 202.491 45.9665C202.491 45.4544 202.392 45.0579 202.193 44.777C201.995 44.4796 201.731 44.2566 201.401 44.1079C201.07 43.9592 200.698 43.8601 200.285 43.8105C199.872 43.761 199.443 43.7362 198.997 43.7362H196.766V48.3457ZM208.241 51.6169V34.0711H211.809V51.6169H208.241ZM215.537 51.6169V34.0711H219.079V45.6197L227.481 34.0711H230.505V51.6169H226.961V40.217L218.56 51.6169H215.537ZM223.095 33.0798C222.137 33.0798 221.294 32.9228 220.567 32.609C219.857 32.295 219.303 31.8324 218.907 31.2211C218.51 30.6098 218.287 29.8333 218.237 28.8916H221.187C221.203 29.4368 221.392 29.8499 221.756 30.1307C222.12 30.4116 222.574 30.552 223.119 30.552C223.681 30.552 224.127 30.4116 224.458 30.1307C224.789 29.8499 224.97 29.4368 225.003 28.8916H227.927C227.911 29.8333 227.696 30.6098 227.283 31.2211C226.87 31.8324 226.308 32.295 225.598 32.609C224.887 32.9228 224.053 33.0798 223.095 33.0798ZM106.835 84.0287V76.3214C107.512 76.3214 108.017 76.1479 108.347 75.8009C108.677 75.454 108.917 75.0244 109.066 74.5122C109.215 73.9836 109.33 73.4301 109.413 72.8519C109.512 72.2736 109.587 71.6871 109.636 71.0923C109.686 70.4975 109.719 69.9192 109.735 69.3575C109.802 68.0854 109.85 66.8463 109.883 65.6401C109.916 64.4341 109.933 63.2363 109.933 62.0468H122.325V76.3214H124.431V84.0287H120.887V79.5926H110.379V84.0287H106.835ZM112.213 76.3214H118.781V65.3428H113.205L113.081 70.8692C113.081 71.1997 113.064 71.5962 113.031 72.0588C113.015 72.5049 112.974 72.9758 112.907 73.4714C112.841 73.967 112.75 74.4627 112.635 74.9583C112.535 75.454 112.395 75.9083 112.213 76.3214ZM126.62 79.5926V62.0468H133.46C134.798 62.0468 135.963 62.2533 136.954 62.6663C137.962 63.0628 138.738 63.7071 139.284 64.5993C139.828 65.475 140.101 66.648 140.101 68.1184C140.101 69.4897 139.795 70.6379 139.185 71.5632C138.589 72.4884 137.772 73.1823 136.731 73.6449C135.69 74.0909 134.509 74.314 133.187 74.314H130.164V79.5926H126.62ZM130.164 71.1419H133.137C134.195 71.1419 135.03 70.8941 135.641 70.3984C136.268 69.8863 136.582 69.1179 136.582 68.0936C136.582 67.1684 136.318 66.4828 135.789 66.0367C135.277 65.5741 134.451 65.3428 133.311 65.3428H130.164V71.1419ZM139.452 79.5926L146.292 62.0468H150.257L157.022 79.5926H153.207L152.116 76.5939H144.359L143.268 79.5926H139.452ZM145.499 73.397H151.001L148.275 65.8137L145.499 73.397ZM158.905 79.5926V62.0468H162.449V69.3327H164.952L169.512 62.0468H173.576L167.925 70.5719L173.551 79.5926H169.413L165.075 72.604H162.449V79.5926H158.905ZM182.511 79.7908C180.711 79.7908 179.158 79.4109 177.852 78.6509C176.564 77.8909 175.572 76.8418 174.879 75.5036C174.202 74.1487 173.863 72.5957 173.863 70.8444C173.863 69.0602 174.21 67.4906 174.904 66.1358C175.614 64.7811 176.621 63.7319 177.927 62.9885C179.232 62.2285 180.785 61.8485 182.586 61.8485C184.371 61.8485 185.907 62.2202 187.195 62.9637C188.484 63.7071 189.475 64.748 190.17 66.0863C190.88 67.4245 191.235 68.9858 191.235 70.7701C191.235 72.5214 190.88 74.0827 190.17 75.454C189.475 76.8087 188.476 77.8744 187.171 78.6509C185.882 79.4109 184.329 79.7908 182.511 79.7908ZM182.561 76.47C183.751 76.47 184.717 76.1975 185.461 75.6522C186.204 75.107 186.742 74.4048 187.071 73.5458C187.419 72.6866 187.592 71.7862 187.592 70.8444C187.592 70.1505 187.493 69.4649 187.295 68.7875C187.113 68.1102 186.824 67.4988 186.427 66.9536C186.031 66.4085 185.511 65.9788 184.866 65.6649C184.222 65.3345 183.445 65.1694 182.536 65.1694C181.363 65.1694 180.405 65.4419 179.662 65.9871C178.918 66.5158 178.365 67.2097 178.001 68.0688C177.655 68.928 177.481 69.8449 177.481 70.8196C177.481 71.7945 177.655 72.7114 178.001 73.5705C178.365 74.4296 178.918 75.1318 179.662 75.677C180.422 76.2057 181.388 76.47 182.561 76.47ZM193.996 79.5926V62.0468H197.54V69.308H205.124V62.0468H208.693V79.5926H205.124V72.5792H197.54V79.5926H193.996Z" fill="#EF4751"/>
<path d="M72.9256 0.442894C60.0423 2.08823 48.3076 11.029 41.4158 24.409C40.6086 25.9612 39.8325 27.2651 39.6463 27.3272C39.491 27.3892 38.9943 27.1719 38.5908 26.8305C38.0009 26.3648 37.8457 25.9302 37.8457 24.7815V23.3225L37.0075 24.3469C35.3311 26.3337 35.6726 28.6 37.7215 29.3761C38.9633 29.8728 39.3358 31.2387 39.3669 35.3366C39.3669 40.7072 38.3735 43.6254 35.0828 47.8163C33.2512 50.1757 31.73 51.3243 30.5193 51.3243C29.3706 51.3243 27.3838 50.0515 26.7008 48.8718C25.8626 47.4128 25.9247 42.9424 26.794 42.9424C27.1355 42.9424 27.7563 44.3704 27.7874 45.2086C27.7874 45.7053 27.9426 45.5191 28.2841 44.6498C28.5324 43.9358 28.7187 42.4457 28.7187 41.1108C28.7187 38.8756 28.7187 38.8446 29.3086 39.3723C29.65 39.6827 30.0847 40.4278 30.2709 41.0487C30.6124 42.0111 30.6745 42.0732 30.8918 41.5454C31.3264 40.4278 31.1712 38.3168 30.5503 36.6715C30.2088 35.8022 30.0226 34.9951 30.0847 34.9019C30.333 34.6536 32.1336 36.5162 32.7234 37.6649L33.3133 38.7514L33.3443 37.4786C33.3443 35.5849 32.5061 33.0703 31.1402 31.0835L29.9605 29.314L31.2333 29.7797C31.9473 30.028 33.0028 30.5868 33.5616 31.0214C35.921 32.822 33.9341 29.1277 31.0781 26.3958C28.5635 24.0365 28.7808 23.7881 32.2578 25.0609C34.1825 25.7439 34.2756 25.775 33.7479 25.1851C33.2201 24.5953 29.2465 21.8323 28.905 21.8323C28.8429 21.8323 28.0978 21.5219 27.2907 21.1804C25.9868 20.6216 25.8626 20.4664 26.3594 20.218C26.6698 20.0318 27.7253 19.9697 28.8118 20.0939L30.7055 20.2801L29.7742 19.7213C29.2465 19.4109 28.0357 18.8831 27.0423 18.5417L25.2728 17.9518L26.5456 16.2444C28.0047 14.3507 28.905 12.488 29.4948 10.1908C30.1467 7.80037 30.0226 7.55202 28.9981 9.32153C26.4525 13.7608 21.7959 16.5548 16.9219 16.5548C14.9351 16.5548 15.0903 15.996 17.1392 15.7166C18.35 15.5614 18.381 15.4993 19.064 13.4815C19.5296 12.1155 19.809 10.377 19.9332 8.1729C19.9953 6.37234 19.9953 4.97535 19.9022 5.06848C19.809 5.16161 19.3434 6.27921 18.8467 7.58306C18.35 8.85587 17.4186 10.6875 16.7977 11.6188C15.556 13.5125 12.3274 17.1757 11.9238 17.1757C11.7686 17.1757 11.8307 16.5238 12.079 15.6856C12.3274 14.8784 12.5447 14.1644 12.5447 14.0713C12.5447 14.0092 11.9859 14.5059 11.3029 15.1578C10.4958 15.9339 9.8128 17.0515 9.37818 18.1691C8.57103 20.3733 8.01224 20.9631 7.7018 19.8455C7.60866 19.4419 7.60866 18.8831 7.76389 18.6658C7.95015 18.3243 7.88806 18.3243 7.54658 18.6658C7.23614 18.9452 7.11196 19.8145 7.11196 21.3667C7.11196 24.0365 6.67734 24.8436 4.06963 26.7373C2.02071 28.2585 1.64818 28.3827 0.965209 27.7928C0.189104 27.1099 -0.0282055 27.5445 0.00283872 29.9038C0.0649271 31.7665 0.654767 34.0017 1.05834 33.6602C1.15147 33.5981 1.524 33.6912 1.89653 33.8775C2.45533 34.1879 2.51742 34.1569 2.39324 33.6291C2.26906 33.1945 2.51742 32.853 3.26248 32.4184L4.28694 31.7975L5.032 32.4805L5.77706 33.1635L5.59079 32.2321C5.40453 31.3008 5.43557 31.2387 7.48449 30.3074C11.4892 28.4758 13.7244 28.1033 11.365 29.6555C10.682 30.1211 9.44027 31.2698 8.63312 32.2321C7.79493 33.1945 6.58421 34.3121 5.90123 34.7157L4.69051 35.4297L5.65288 35.9264C6.18063 36.2058 7.32927 36.4231 8.1985 36.4231C9.78176 36.4231 10.2785 36.0195 9.12983 35.647C8.1985 35.3676 8.38477 34.964 9.5334 34.7467C10.1232 34.6536 10.8373 34.3431 11.1787 34.0948C11.6755 33.6912 11.7065 33.5981 11.3029 33.3187C10.5889 32.822 12.5447 31.1456 13.8175 31.1456C14.3142 31.1456 15.0903 30.8972 15.5249 30.6178C16.0527 30.2764 16.8909 30.1211 18.0085 30.1522C19.4675 30.1832 19.6849 30.1211 19.6849 29.5934C19.6849 29.2829 20.0884 28.5689 20.6162 28.0101C21.2681 27.2651 21.4233 26.9236 21.1439 26.7373C20.8956 26.5821 21.1129 26.3958 21.7648 26.1785C22.2926 25.9923 22.9755 25.4956 23.2549 25.0609L23.7206 24.3159L22.4167 24.2848L21.0818 24.2538L22.2615 23.9433C23.6896 23.5708 23.7206 23.2293 22.3236 22.7637L21.2371 22.3911L22.1994 21.7392C22.7582 21.3667 23.4102 20.7148 23.6896 20.3112C24.1552 19.5661 24.1552 19.5661 23.4102 19.7524C21.6717 20.156 18.9087 20.3422 19.3744 20.0007C19.6228 19.8145 20.3368 19.6592 20.9266 19.6592C21.5165 19.6592 22.7582 19.3799 23.6585 19.0694C24.9313 18.6348 25.3349 18.6037 25.5833 18.8831C25.8006 19.1625 25.7695 19.3178 25.4591 19.4419C25.2418 19.5351 24.5898 20.2491 24.0621 21.0252L23.0997 22.4843L24.031 22.6705C24.5588 22.7637 25.0245 22.9499 25.1176 23.0431C25.3349 23.4466 23.4412 26.1164 22.3547 26.9546L21.2681 27.7618L22.0442 28.8794C23.5654 31.1456 22.6961 34.0017 18.7846 39.5275C15.9596 43.5012 15.2145 44.8361 14.2832 47.6611C11.7996 55.0496 15.2766 64.0524 21.7959 67.1569C23.5964 68.0261 23.5654 67.933 24.031 71.3789C24.3104 73.1794 24.3104 74.3591 24.0621 75.663C23.4102 79.1399 22.1684 80.6611 20.0263 80.5679C18.6294 80.5369 17.0771 81.0026 16.5183 81.6545C16.1458 82.1202 16.1769 82.1202 16.7977 81.8097C17.698 81.313 18.1016 81.9339 17.2634 82.5548C16.4873 83.0825 16.1769 84.2622 16.5494 85.2246C16.7357 85.6592 16.8598 85.7523 16.8598 85.4419C16.8909 84.9141 17.9153 83.8897 19.0019 83.3309C19.7159 82.9583 19.7159 82.9894 19.4986 84.0449C19.4055 84.6658 19.4055 85.535 19.5296 86.0007L19.7159 86.8389L20.2126 85.8455C20.8645 84.4795 22.2305 83.7344 25.0865 83.2067L27.539 82.741L28.4393 83.6103L29.3086 84.4795V83.4861C29.3086 82.0891 28.5324 81.1267 27.4149 81.1267C26.8561 81.1267 26.5146 80.9715 26.5146 80.6921C26.5146 79.6677 28.191 74.6385 29.0292 73.1794C29.8053 71.7824 29.9294 71.2857 29.9294 69.0816C29.9294 67.0637 29.7432 66.0703 28.9671 63.9903C28.4704 62.5623 28.1599 61.5379 28.3151 61.7241C28.905 62.376 30.5503 66.8464 30.5503 67.8088V68.8022L33.7479 68.5849C37.5353 68.3055 40.857 67.5915 44.7996 66.1014C46.4139 65.5115 48.6801 64.7665 49.8598 64.456L51.9708 63.9283V62.5002C51.9708 61.1653 52.84 58.7439 53.4299 58.3713C53.5851 58.2782 53.492 58.8991 53.1815 59.7994C52.4675 61.8173 52.4365 64.6733 53.0884 66.8775C54.1129 70.3544 55.2925 71.4099 60.1975 73.2415C64.016 74.6695 64.6989 75.0731 64.6989 76.0665C64.6989 77.0289 63.7366 78.9226 62.7742 79.8229C62.1223 80.4127 61.7497 80.5059 60.3527 80.3817C59.1731 80.2885 58.5522 80.0712 58.2107 79.6366C57.9313 79.2951 57.3415 78.7984 56.8758 78.488C56.3791 78.2086 56.0066 77.8361 56.0066 77.7119C56.0066 77.5877 56.7206 76.6874 57.5588 75.725C58.428 74.7627 59.111 73.8314 59.111 73.7072C59.111 73.583 58.397 73.2415 57.4967 72.9C54.5785 71.8445 52.4365 68.8953 52.1881 65.6357C52.126 64.6733 52.095 64.6423 50.8843 64.8596C50.2323 64.9527 49.1768 65.2321 48.556 65.4494C47.5315 65.7909 47.4694 65.884 47.3763 67.4052C47.2211 70.1992 48.4318 71.5341 52.5917 73.2415C53.7093 73.6761 54.6406 74.0797 54.7027 74.1418C54.92 74.3591 53.523 76.6874 52.6848 77.4635C51.8777 78.2396 51.6914 78.3017 50.729 78.0223C49.2079 77.5877 47.7488 77.6498 47.3452 78.1465C46.9106 78.6742 46.3829 80.4127 46.6002 80.599C46.6623 80.6921 47.0658 80.4127 47.5004 79.9781C47.904 79.5745 48.4007 79.3262 48.587 79.4504C48.8353 79.5745 48.8353 79.7297 48.587 79.9781C48.4007 80.1644 48.2455 80.8784 48.2455 81.5614C48.2455 82.8342 48.2766 82.8342 48.8043 82.1512C49.6115 81.0957 56.286 79.6987 56.7516 80.4748C56.8758 80.6611 57.5277 80.8163 58.2107 80.8163C58.8626 80.8163 59.4214 80.8784 59.4214 80.9715C59.4214 81.0336 59.0799 81.4372 58.6453 81.8718C57.8071 82.71 57.6829 83.7034 58.2728 84.7589C58.6453 85.4419 58.6764 85.4108 59.3904 84.0759C60.2286 82.4616 60.57 82.3375 60.8494 83.5171C61.1909 85.1625 61.6566 86.4042 61.936 86.5595C62.0912 86.6836 62.2154 86.5595 62.2154 86.2801C62.2154 85.8455 62.4637 85.5971 65.1646 83.5792C66.7168 82.3685 68.1448 82.4927 69.4487 83.9207L70.2869 84.852V83.6103C70.2869 81.4682 69.3556 80.1954 67.7723 80.1954C67.0583 80.1954 66.9962 79.202 67.6171 76.9358C68.0827 75.1042 68.5795 74.0797 69.4176 73.1794L70.0075 72.5275L68.5174 72.155C67.3066 71.8445 66.6547 71.4099 65.1025 69.7646C64.047 68.678 62.9605 67.7777 62.7121 67.7777C62.0912 67.7777 62.0912 67.8398 62.8052 66.1945C63.1157 65.4494 63.4572 64.5802 63.5813 64.2697C63.7366 63.773 64.047 63.9593 65.7544 65.5115C70.1938 69.5783 78.5757 73.0552 83.9463 73.0552C90.6208 73.0242 95.1533 69.2989 95.65 63.4316C95.9604 59.8615 94.8428 56.6018 91.6763 51.7589C90.776 50.424 89.6274 48.4062 89.1307 47.3196C87.4233 43.6874 87.951 40.3968 90.4967 38.5652C91.7695 37.6649 94.7497 36.6715 95.4637 36.8888C96.2398 37.1371 96.2088 37.5097 95.3706 38.6893L94.6566 39.6827L96.2088 38.7825C99.5305 36.8577 103.38 33.4429 104.404 31.4871L104.808 30.742L103.877 31.425C102.387 32.4495 99.7789 33.567 98.1956 33.7844C97.4195 33.9085 95.9604 33.8464 94.967 33.6602C93.9736 33.4739 93.1044 33.3808 93.0112 33.4429C92.9491 33.536 93.4148 33.8464 94.0357 34.1569L95.1533 34.7467L92.4524 35.7712C88.7892 37.1682 86.9887 38.9066 86.4299 41.5764C85.84 44.3083 86.523 47.1334 89.0376 52.504C90.1552 54.8944 91.2417 57.5021 91.428 58.2782C91.9557 60.4203 91.6763 63.1522 90.776 64.4871C89.6585 66.1014 86.6782 67.6225 87.1749 66.3187C87.3612 65.822 87.3612 65.822 86.8334 66.2876C85.4675 67.5294 83.6048 67.5604 84.6293 66.3187C85.0018 65.853 84.9708 65.853 84.2878 66.1945C83.5428 66.5981 80.4383 66.536 80.0037 66.1324C79.9106 66.0082 80.0348 65.6667 80.3142 65.3873C80.7798 64.8596 80.7177 64.8285 79.1966 64.9217C77.9238 65.0148 77.365 64.8906 76.5268 64.3008C75.0366 63.3074 74.9435 62.8107 76.2474 62.8107C77.2097 62.7796 77.1477 62.7486 75.6265 62.2208C73.2361 61.4137 71.0009 59.1164 72.9256 59.4579C74.1053 59.7062 73.3603 58.9922 71.5907 58.154C70.0696 57.44 68.7347 56.3845 68.7347 55.8878C68.7347 55.7326 69.2935 55.6705 69.9764 55.7326C70.6594 55.7947 71.2182 55.7947 71.2182 55.7636C71.2182 55.5153 68.7036 54.4908 67.6481 54.2735C65.6303 53.932 64.9162 52.8144 66.3443 52.2867C66.872 52.1004 66.4685 51.9762 64.6989 51.79C62.3396 51.5727 61.2841 51.2312 61.2841 50.7034C61.2841 50.5482 61.5635 50.3309 61.9049 50.2378C62.2464 50.1446 62.5258 49.8963 62.5258 49.7411C62.5258 49.5548 61.5635 49.4927 59.9181 49.6479C58.459 49.7721 57.0621 49.7721 56.7516 49.6479C56.286 49.4617 56.286 49.3685 56.9379 48.6856C57.8382 47.7232 57.8071 47.7232 55.4478 48.6856C53.3057 49.5548 51.6604 49.71 51.6604 49.027C51.6604 48.8097 51.8777 48.4372 52.126 48.2199C52.4054 48.0026 52.5296 47.7542 52.4675 47.6611C52.3744 47.599 51.5672 48.0336 50.698 48.6856C48.8664 49.9894 46.8175 50.9828 45.9793 51.0139C45.4826 51.0139 45.4826 50.9518 45.8862 50.1136C46.9727 48.0647 50.2013 46.0779 52.4675 46.0468C53.6472 46.0468 53.7714 45.9537 53.9266 45.1155C54.0508 44.6188 54.6406 43.6564 55.2615 42.9424C57.1862 40.8003 61.8118 39.838 66.6547 40.583L68.4242 40.8314L67.524 38.7204C65.7234 34.4363 65.9407 31.6113 68.3001 29.0035C69.9454 27.1719 72.2116 26.2717 76.0611 25.9302L78.5136 25.7129L76.8993 24.5642C75.0677 23.1983 73.3292 21.3356 72.6462 20.0007C70.8457 16.5548 74.3537 13.3883 81.4317 12.0224C82.7046 11.774 83.7911 11.5257 83.8532 11.4636C83.9153 11.4015 83.1392 10.9979 82.1147 10.5323C79.5691 9.38362 75.8438 8.48334 73.5776 8.45229C70.7836 8.42125 68.983 8.07977 68.6415 7.52097C68.2069 6.80695 70.0075 4.38551 72.3048 2.5539C75.0366 0.41185 75.4092 0.132454 75.254 0.163498C75.1608 0.163498 74.1364 0.318718 72.9256 0.442894ZM66.841 11.743C66.7478 11.8051 65.444 12.3018 63.9228 12.8606C59.9181 14.2576 57 15.6545 54.0818 17.5793C49.6115 20.4974 44.7065 25.2162 42.9059 28.2274L42.2229 29.4071L44.3339 27.917C48.6801 24.8126 54.5785 22.8258 60.4459 22.5464C63.9849 22.3601 70.1317 22.8568 70.4111 23.3535C70.5042 23.4777 69.4797 23.4466 68.1759 23.2914C64.3574 22.8568 58.8005 23.2293 55.2304 24.1296C51.7845 24.9988 47.4073 27.0478 44.9238 28.9104L43.2784 30.1211L46.4139 30.3074C49.984 30.5247 53.2436 31.3629 56.7516 32.9151C58.9247 33.8775 63.4572 36.5783 63.4572 36.8888C63.4572 36.9509 62.0291 36.2368 60.2907 35.3366C55.3857 32.7909 48.8664 31.2387 44.2408 31.5181L42.5334 31.6113L43.7751 32.4184C46.1035 33.9706 49.2389 37.5097 51.1326 40.7693C51.9708 42.2284 53.492 46.0158 52.809 44.9913C52.6227 44.6809 51.6293 43.1287 50.6049 41.5764C48.6491 38.5652 45.9482 35.5539 43.8062 34.0017L42.4402 33.0393L42.5955 35.9264C42.9059 41.8869 40.9501 47.4128 37.2869 50.9518C34.8344 53.3111 33.9962 53.5285 36.2625 51.2312C38.1561 49.2754 39.8946 46.1089 40.6397 43.2528C41.2916 40.8003 41.3847 35.4297 40.8259 31.9838L40.4534 29.5934L41.9125 27.5134C46.7243 20.7768 53.8024 15.6856 62.4327 12.8295C65.7855 11.7119 67.2135 11.3704 66.841 11.743ZM14.0969 22.2359C14.5005 22.981 14.5005 23.1052 13.8175 23.7881C12.9793 24.7194 10.8062 25.3403 9.99907 24.9057C9.22296 24.5021 9.28505 23.8813 10.2164 22.8568L10.9614 21.9876L10.9925 23.1362C10.9925 23.7881 11.1167 24.3159 11.3029 24.3159C11.7375 24.3159 12.2342 23.2293 12.2342 22.329C12.2342 20.9941 13.3518 20.9321 14.0969 22.2359Z" fill="#EF4751"/>
<path d="M19.3744 67.0328C19.3744 67.0949 19.6538 67.871 20.0263 68.7713C20.9576 71.1617 20.8956 74.0488 19.8711 76.0977C19.0019 77.8362 18.1947 78.2708 16.8598 77.7431C16.3941 77.5879 15.8974 77.5568 15.618 77.7431C15.3697 77.8983 14.7488 77.9293 14.19 77.8362C13.0724 77.6189 12.4515 78.3019 12.079 80.1645L11.8617 81.2511L12.8862 80.3508L13.9417 79.4815L14.1279 81.0027C14.2211 81.8409 14.3452 82.2755 14.3452 81.9651C14.4384 81.0648 16.2079 80.2266 18.5362 80.0093C21.206 79.7609 22.2615 78.9538 22.9445 76.6876C23.5033 74.8249 23.5343 73.3348 23.0686 70.696C22.7272 68.7403 22.7272 68.7092 21.0508 67.8089C20.1194 67.3122 19.3744 66.9707 19.3744 67.0328Z" fill="#EF4751"/>
<path d="M56.9377 81.6859C56.5341 81.9963 56.3168 82.493 56.3789 82.8345C56.472 83.3933 56.5962 83.3002 57.5275 82.3068C58.6141 81.065 58.2415 80.6304 56.9377 81.6859Z" fill="#EF4751"/>
</svg>
