<svg width="64" height="64" viewBox="0 0 64 64" fill="none" xmlns="http://www.w3.org/2000/svg">
<path d="M47.9997 34.6615H34.6663V47.9948C34.6663 48.702 34.3854 49.3803 33.8853 49.8804C33.3852 50.3805 32.7069 50.6615 31.9997 50.6615C31.2924 50.6615 30.6142 50.3805 30.1141 49.8804C29.614 49.3803 29.333 48.702 29.333 47.9948V34.6615H15.9997C15.2924 34.6615 14.6142 34.3805 14.1141 33.8804C13.614 33.3803 13.333 32.702 13.333 31.9948C13.333 31.2875 13.614 30.6093 14.1141 30.1092C14.6142 29.6091 15.2924 29.3281 15.9997 29.3281H29.333V15.9948C29.333 15.2875 29.614 14.6093 30.1141 14.1092C30.6142 13.6091 31.2924 13.3281 31.9997 13.3281C32.7069 13.3281 33.3852 13.6091 33.8853 14.1092C34.3854 14.6093 34.6663 15.2875 34.6663 15.9948V29.3281H47.9997C48.7069 29.3281 49.3852 29.6091 49.8853 30.1092C50.3854 30.6093 50.6663 31.2875 50.6663 31.9948C50.6663 32.702 50.3854 33.3803 49.8853 33.8804C49.3852 34.3805 48.7069 34.6615 47.9997 34.6615Z" fill="white"/>
</svg>
